<?xml version="1.0" encoding="utf-8"?>
<!-- Generator: Adobe Illustrator 24.3.0, SVG Export Plug-In . SVG Version: 6.00 Build 0)  -->
<svg version="1.1" id="Camada_1" xmlns="http://www.w3.org/2000/svg" xmlns:xlink="http://www.w3.org/1999/xlink" x="0px" y="0px"
	 viewBox="0 0 55.2 85.3" style="enable-background:new 0 0 55.2 85.3;" xml:space="preserve">
<path class="Mealhada" d="M29.4,72.5l5.4-1.3l-0.7,2l1.4,2l-2.7,2.7l-2-0.7l-0.7,2l-2,0.7l-1.4,2L26,84.6l-3.4,0.7l-2-1.3l-0.7-2l2-0.7l2-1.3l-0.7-2
l0.7-2.7l-0.7-3v-1.7L29.4,72.5z"/>
<path class="Anadia" d="M35.5,69.2l-0.7,2l-5.4,1.3c-2-0.7-4.1-1.3-6.1-2l-3.4,0.7l-2,0.7l-2-2l0.7-2.7l0.7-2l0.7-2l4.1-0.7l3.4-1.4l2-0.7l2.7,0.7
	l2.7-0.7h2.7l2,1.3l-1.4,2l1.4,4L35.5,69.2z"/>
<path class="Oliveira do Bairro" d="M17.9,63.1l-0.7,2l-4.1-2l-1.4-2l0.7-2.7l0.7-2l2.7,1.4l2-2l2,0.7l2-1.3l0.7,2.7l2,0.7l0.7,2.7L22,62.5L17.9,63.1z"/>
<path class="Vagos" d="M11.8,66.5v2.7H9.1l-2-1.3l-2-2.7l-5-4.9l1.7-7.2h3.9l2,0.7l2,0.7l3.4-0.7l0.7,0.7l-0.7,2l-0.7,2l-0.7,2.7l1.4,2L11.8,66.5z
	"/>
<path class="Águeda" d="M27.4,60.4l-2,0.7l-0.7-2.7l-2-0.7L22,55.1l-2,1.3l-2-0.7l2.7-4l0.7-2l2-0.7l0.7-2v-2.7l0.7-2l2.7-0.7l2-0.7l2,0.7l1.4,2
	l0.7,2l3.4,0.7l2-0.7l1.3,2l2,0.7l-1.4,2l-2,0.7v2.7l0.7,2l0.7,2l2,1.3l-0.5,1.5l-2.2-0.2l-2,1.3l-2-1.3h-2.7l-2.7,0.7L27.4,60.4z"
	/>
<path class="Aveiro" d="M17.9,55.7l-2,2l-2.7-1.4l0.7-2l-0.7-0.7l-1.4-2l-2-1.3l-0.7-2l-1.1-1.6l-1.6-1.1l-2.6-1.2l0.9-5.2l1-0.3l2.7-0.7l2-0.7
	l1.7,0.2l1.4,0.7l1.6,3.1l1.4,2l1.4,2.7l0.7,2l2.7,1.3l-0.7,2L17.9,55.7z"/>
<path class="Ílhavo" d="M2.9,53.1H1.7l0.6-2.5l1.3-6.1l2.6,1.2l1.6,1.1l1.1,1.6l0.7,2l2,1.3l1.4,2l-3.4,0.7l-2-0.7l-2-0.7H2.9z"/>
<path class="Sever do Vouga" d="M38.9,40.9l0.7,2.7l-0.7,2l-2,0.7l-3.4-0.7l-0.7-2l-1.4-2l-2-0.7v-1.3v-4v-2.7l1.4-2.7h2.7l3.9,1.5l2.2-0.1l1.4,2l-2,1.3
	l-2,0.7l-0.7,2l0.7,2L38.9,40.9z"/>
<path class="Albergaria-a-Velha" d="M21.3,49.7l-2.7-1.3l-0.7-2l-1.4-2.7l-1.4-2l-1.6-3.1l3,1.1l0.7,2l2-0.7l2-2l-0.7-2v-3.4l3.4-0.7l2-0.7l2,0.7h1.4v2.7v2.7
	v2.7l-2,0.7l-2.7,0.7l-0.7,2V47l-0.7,2L21.3,49.7z"/>
<path class="Estarrega" d="M20.6,36.9l0.7,2l-2,2l-2,0.7l-0.7-2l-3-1.1l-1.4-0.7l-0.3-2.2l1.4-3.4l-2-1.3l-2-0.7l1.4-2h2.7l2-0.7l2-0.7l1.4-1.3l0.7,2
	l-0.7,2l1.4,2l0.7,2V36.9z"/>
<path class="Muriosa" d="M11.8,35.6l0.3,2.2l-1.7-0.2l-2,0.7l-2.7,0.7l-1,0.3l1.1-5.6l1.4-5.8l1.3,0.3l0.7,2l2,0.7l2,1.3L11.8,35.6z"/>
<path class="Vale de Cambra" d="M37.4,31.7l-3.9-1.5h-2.7l-2.3-1.5l1.2-2.7l0.4-4.7l0.7-2.5l3.4,0.7l2,0.7l2,1.3l2,3.4l3.4-2L43,26.2v2.7l-0.7,1.3L41,33.6
	l-1.4-2L37.4,31.7z"/>
<path class="Oliveira de Azemeis" d="M29.4,32.9h-1.4l-2-0.7l-2,0.7l-3.4,0.7l-0.7-2l-1.4-2l0.7-2l-0.7-2l0.7-2l0.7-2l2-0.7l2-2l1.8-1.6l2.2-1.8l2,1.3l0.7,2
	l-0.7,2.5L29.7,26l-1.2,2.7l2.3,1.5L29.4,32.9z"/>
<path class="São João da Madeira" d="M19.9,21.5l2-0.7l2-2l0.7,2.5l-0.4,2l-2.4,0.5L19.9,21.5z"/>
<path class="Ovar" d="M18.6,25.5l-1.4,1.3l-2,0.7l-2,0.7h-2.7l-1.4,2l-0.7-2l-1.3-0.3l2-8.3l1.3-5.8l3.5-2.4v2.7l0.7,2l1.4,2l-0.7,2l1.4,2l2-0.7
	h1.4l-0.7,2L18.6,25.5z"/>
<path class="Arouca" d="M43.7,22.8l-3.4,2l-2-3.4l-2-1.3l-2-0.7h-1.4l-2-0.7l-0.7-2l-2-1.3l-0.7-2.9l1.4-1.8l2-1.3L32.1,8h1.4l3.4,2.7l0.7,2
	l4.7-0.7L43,9.4l0.7-2l1.4-0.7l0.7,2l2,0.7l2,0.7l2,0.7l2.7-4l0.7,2l-0.7,1.3l-1.4,2.7l-1.3,2l1.3,2l-0.7,2l0.7,2l1.4,2.7l-2,0.7
	l-2-0.7l-2.7,0.7l-2-0.7L43.7,22.8z"/>
<path class="Castelo de Paiva" d="M38.9,0l2,1.3L43,2l0.7,2v3.4l-0.7,2l-0.7,2.7l-4.7,0.7l-0.7-2L33.5,8h-1.4l-0.7-2l0.6-2.3l3.4-1L37.6,2L38.9,0z"/>
<path class="Santa Maria da Feira" d="M19.9,21.5h-1.4l-2,0.7l-1.4-2l0.7-2l-1.4-2l-0.7-2v-2.7l0.7-4l3.4-0.7L20.6,6l1.8-1.3L24,5.4l4.1-0.7l0.7,2L32.1,8
	l-1.4,1.4l-2,1.3l-1.4,1.8l0.7,2.9l-2.2,1.8L24,18.8l-2,2L19.9,21.5z"/>
<path class="Espinho" d="M13.8,11.4l-3.5,2.4l0.8-4.9l0.4-2.7l0.9,0.6l2,0.7L13.8,11.4z"/>
</svg>
