<?xml version="1.0" encoding="utf-8"?>
<!-- Generator: Adobe Illustrator 24.3.0, SVG Export Plug-In . SVG Version: 6.00 Build 0)  -->
<svg version="1.1" id="Camada_1" xmlns="http://www.w3.org/2000/svg" xmlns:xlink="http://www.w3.org/1999/xlink" x="0px" y="0px"
	 viewBox="0 0 158.2 106.1" style="enable-background:new 0 0 158.2 106.1;" xml:space="preserve">
<path class="Mértola" d="M84.8,92l-2,0.7l-2,0.7l-2,0.7l-1.4-4L76,88l-0.7-4l0.7-2l0.7-2.7l-0.7-2l2-2.7l0.7-4L78,67.2l0.7-2v-2.7l-1.4-4l-2-2
	l2.7-2.7l2-0.7h2.7l4.1-2l0.7,2l0.7,2l2,0.7l4.1-2.7l2,0.7h1.4l1.4,1.3l-0.7,2l0,2.7l4.7,0.7l2-0.8l2.1,0.8l2.7-2l6.1,3.4l1.4,0.7
	l-0.9,2.9l-1.3,2.5l0.6,2.2l-1.1,1.8l-1.6,2.3l-0.7,2l-1.2,1.8l-0.9,2.3v2.7l0.7,2l-3.2-0.3l-4.1,1.3l-2,1.3l-2,0.7l-2-0.7H95
	l-2,0.7l-2,0.7l-2,0.7l-2,1.3L84.8,92z"/>
<path class="Almodôvar" d="M54.9,79.3l0.7-2l0.7-2l2-0.7l2,1.3l4.8,0.7l2-0.7l1.4,2.7l-0.7,2l2,0.7l4.1-2h2.7L76,81.9l-0.7,2l0.7,4l1.4,2l1.4,4l-1.4,2
	l-4.8,2l-2-0.7l-2,1.3l-0.7,2l-1.3,2l-1.4,2l-2,1.3c-2.7,0-5.4,0-8.2,0l-2-0.7l-6.1-5.4l-2-0.7l0.7-1.3l3.4-6.7c-0.7-2-1.4-4-2-6
	l-0.7-2l0.7-2h2.7l1.4-2H54.9z"/>
<path class="Castro Verde" d="M76,77.2l0.7,2h-2.7l-4.1,2l-2-0.7l0.7-2l-1.4-2.7l-2,0.7l-4.8-0.7l-2-1.3l-2,0.7v-1.3l-1.4-4l-2.7-4l-0.7-2l0.7-5.4l-0.7-2
	h2l4.1,2l6.1-4l2-0.7l9.5,2.7l2,2l1.4,4v2.7l-0.7,2l0.7,3.4l-0.7,4L76,77.2z"/>
<path class="Ourique" d="M46.7,81.3l-0.7,2l0.7,2c0.7,2,1.4,4,2,6l-3.4,6.7l-2-2.7h-2.7l-2,0.7l-2-1.3l-0.7-2v-6l4.1-5.4l0.7-2.7l-1.4-6.7l0.7-2
	l-2-0.7h-2.7l-1.4-2l-2-0.7l-0.7-2.7l2-0.7l2.7-4l-1.4-2l0.7-2l-1.4-5.4h2l2,0.7l2,1.3l1.3,4l2,1.3h4.1l2-1.3l2,0.7l0.7,2l-0.7,5.4
	l0.7,2l2.7,4l1.4,4l-0.1,1.6l-0.6,1.8l-0.7,2h-4.1l-1.4,2H46.7z"/>
<path class="Odemira" d="M35.9,92.7l0.7,2l-2,1.3l-2,1.3v2.7l-2,0.7h-2.7l-4.8-0.7l-2-1.3l-2-0.7l-4.1,1.3h-2.7l-1.4,1.3l-2-1.3l-4.1-1.3l-0.7-2
	l-2.6-1.7l0.7-2v-2.7l0.7-2v-2.7l-1.4-4.7L0,77.5l2-6.1v-8.8L1.3,60v-3.4l1.2-0.2l2-1.3l2,0.7l0.7,2l2,1.4l0.7,2l2-1.3l2,1.3l2,0.7
	l2-0.7l0.7-4.7l1.4-2l0.7-2l2-1.3h3.4l2.7-1.3h4.8l1.4,5.4l-0.7,2l1.4,2l-2.7,4l-2,0.7l0.7,2.7l2,0.7l1.4,2h2.7l2,0.7l-0.7,2
	l1.4,6.7L40,81.3l-4.1,5.4V92.7z"/>
<path class="Serpa" d="M124.2,34.3l2,0.7l1.4,2l3.7,2.2v2.7l-0.7,2l-1.4,2.8l-1.3,4l-2,2.7l-2,1.4l-1.3,2l-4,2.7l-1.1,3.1l-1.4-0.7l-6.1-3.4
	l-2.7,2l-2.1-0.8l-2,0.8l-4.8-0.7v-2.7l0.7-2l-1.4-1.3v-3.4v-2.7l0.7-2l-1.4-2l-2-1.3c1.5-4.5,2.7-5.8,3.4-10.7l-1.4-2v-3.4l3.4-4
	l0.7-2l2.5-2.5l3,0.4l2.7,8.1l6.1,2l4.7,1.4l2,4L124.2,34.3z"/>
<path class="Beja" d="M65.8,53.7l-2,0.7l-0.7-2.7L62.4,49L61,47l0.7-4l2-1.3v-2.7v-2.7c1.9-4.7,2.3-8.7,5.4-12.8l2,0.7l4.8-2.7l6.1-2.7l1.4,4
	l-0.7,2l4.1,2l2-0.7v-2.7h4.1l4.1,2.7v3.4l1.4,2c-0.7,4.9-1.9,6.3-3.4,10.7l2,1.3l1.4,2l-0.7,2v2.7v3.4h-1.4l-2-0.7l-4.1,2.7l-2-0.7
	l-0.7-2l-0.7-2l-4.1,2H80l-2,0.7l-2.7,2.7L65.8,53.7z"/>
<path class="Aljustrel" d="M53.5,56.4h-2l-2-0.7l-2,1.3h-4.1l-2-1.3l-1.3-4V49l2-4v-2.7l1.4-2.7v-2.7c5.3-2.6,8.4,3,14.9,1.3l1.4-2h4.1v2.7v2.7l-2,1.3
	L61,47l1.4,2l0.7,2.7l0.7,2.7l-6.1,4L53.5,56.4z"/>
<path class="Ferreira do Alentejo" d="M59.7,20.2l8.8-3.4l0.7,2.7v4c-3.1,4.1-3.5,8-5.4,12.8h-4.1l-1.4,2c-6.6,1.6-9.6-4-14.9-1.3l-2-2.7l-2-0.7
	c-2.9-0.9-3.6-2.4-6.1-4l2-6.1l2,0.7l2-4.7l2,1.3l2,0.7v-2.7l1.4-2l3.4-0.7l6.8-3.4l2-1.3L59.7,20.2z"/>
<path class="Barrrancos" d="M158.2,10.9l-1.4,3.2l-1.3,1.5V18l-1,4.2l-3.8,1.3l-2,0.7h-2.7l-2,0.7l-0.7-2l-2,0.7l-1.4-2l-2-0.7l-2-0.7l2-0.7l2-1.3
	l-0.7-2l2.7-1.3l2.6-0.5l0.9,1.3l1.3-2h3.4l4-2.7H158.2z"/>
<path class="Moura" d="M135.7,20.2l2,0.7l2,0.7l1.4,2l2-0.7l0.7,2l2-0.7h2.7l2-0.7l3.8-1.3l-1.8,7.3l-2,2l-2,1.3l-3.9-3.9l-2,0.7l-0.7,2.7l-2.7,2
	l-2-0.7h-2.7l-2.7,0.7v2.7l-0.7,2l-3.7-2.2l-1.4-2l-2-0.7l-2-0.7l-2-4l-4.7-1.4l-6.1-2l-2.7-8.1h3.4l1.4-2l-0.7-2l2-1.3l0.7-2l2-1.4
	l0.7-2l2-1.3l0.7-2l2-0.7l2-1.3l2-0.7l2-1.4l2,1.4l0.7,2l0.7,2l1.3,2l2,0.7l2,0.7l-0.7,2l1.4,2l1.4,2l1.4,1.3l0.7,2l-2,1.3
	L135.7,20.2z"/>
<path class="Vidigueira" d="M103.8,14.8l6.8-0.7l0.7,2l-1.4,2h-3.4l-3-0.4l-2.5,2.5l-0.7,2l-3.4,4l-4.1-2.7h-4.1v2.7l-2,0.7l-4.1-2l0.7-2l-1.4-4
	l-0.7-2.7l-1.4-2l-2-1.3l2-0.7l0.7-2l-0.7-2c3,0.7,7.1,1.2,9.5,2l1.4,2l6.1,2L103.8,14.8z"/>
<path class="Cuba" d="M70.5,15.5l2-0.7l0.7-2l-0.7-2V8.1V5.4l1.4-0.7l2,0.7l2,1.3l2,1.3l0.7,2l-0.7,2l-2,0.7l2,1.3l1.4,2l0.7,2.7L76,21.5
	l-4.8,2.7l-2-0.7v-4l-0.7-2.7L70.5,15.5z"/>
<path class="Alvito" d="M71.2,3.4l2.7,1.3l-1.4,0.7v2.7v2.7l0.7,2l-0.7,2l-2,0.7l-2,1.3l-8.8,3.4l-2.7-8.7V8.7L55.6,4l0.7-1.3l0,0l2-0.7L61,1.4h2.7
	l1.4,2l2,0.7l2-1.3L71.2,3.4z"/>
</svg>
