<?xml version="1.0" encoding="utf-8"?>
<!-- Generator: Adobe Illustrator 24.3.0, SVG Export Plug-In . SVG Version: 6.00 Build 0)  -->
<svg version="1.1" id="Camada_1" xmlns="http://www.w3.org/2000/svg" xmlns:xlink="http://www.w3.org/1999/xlink" x="0px" y="0px"
	 viewBox="0 0 77.8 54.5" style="enable-background:new 0 0 77.8 54.5;" xml:space="preserve">
<path class="Celorico de Basto" d="M64.9,40.4l2.7,1.4l0.7,2l-2,1.3v5.4l-1.4,2l-2,1.3l-2,0.7l-3.4-1.3h-2.7l-1.3-2l0.7-2l0.7-2l0.7-2v-2.7l2-0.7l0.7-2l0.7-2
	l2,0.7l2,0.7L64.9,40.4z"/>
<path class="Vizela" d="M37.1,50.5l0.7-2.7l2-1.3l1.1,1.4l1.6-0.1l-0.7,2l-0.7,2l-2,0.7L37.1,50.5z"/>
<path class="Cabeceiras de Basto" d="M69,39.1l-1.4,2.7l-2.7-1.4l-2-1.3l-2-0.7l-2-0.7v-5.4l-0.7-2.7l0.7-1.3l0.7-2l2-0.7l1.4-2c2.5,1.2,4.2,1.8,6.8,2.7l4.8-0.7
	l2-2l0.7,2l0.7,2l-3.4,5.4l-0.7,2l-2,0.7L71,37.1h-1.4L69,39.1z"/>
<path class="Fafe" d="M54.7,47.2l-0.7,2l-2.7-0.7l-0.7-2l-2-0.7h-2.7v-1.3l-1.4-2l0.7-2l0.7-2l-0.7-2l-0.7-2l0.7-2l2-1.4l2,0.7l2-0.7H54l2-0.7
	l2-0.7l0.7,2v6l-0.7,2l-0.7,2l-2,0.7v2.7L54.7,47.2z"/>
<path class="Guimarães" d="M37.1,50.5l-5.4,0.7l1.4-2.7l-0.7-2l0.7-2l-2-0.7l-0.7-2l-1.4-1.4l3.4-4v-2.7l2-1.3h2.7l2-0.7l2,1.3l2,0.7l1.4,0.7l0.7,2
	l0.7,2l-0.7,2l-0.7,2l1.4,2v1.3l-0.7,2h-2.7l-1.6,0.1l-1.1-1.4l-2,1.3L37.1,50.5z"/>
<path class="Vila Nova de Famalicão" d="M30.9,43.8l2,0.7l-0.7,2l0.7,2h-2l-4.7,1.3l-2,0.7l-2,1.3l-1.4,0.7H18h-2l-2-2l-0.7-2l2-0.7l-0.7-2v-2l2,0.7l2-0.7l1.4-2.7
	l-0.7-2l2-2.7l0.7,2l6.8,2l1.4,1.4L30.9,43.8z"/>
<path class="Vieira do Minho" d="M49.3,17.6l4.7-1.3l2-0.7h2.7l2-0.7l2,1.3l2,0.7l-1.4,2v2.7l-0.7,2l-1.4,2l-2,0.7l-0.7,2l-0.7,1.3l-2,0.7L54,31h-2.7
	l-0.7-2.7l0.7-2h-2.7l-2-1.3l0.7-2l-2-0.7l-2-0.7l1.4-1.3l2.7-0.7L49.3,17.6z"/>
<path class="Póvoa de Lanhoso" d="M41.1,33.1l-2-1.3l0.7-2l-2-2l-2-1.4l0.7-2l1.4-1.3l1.4-2.7l4.1,1.3l2,0.7l2,0.7l-0.7,2l2,1.3h2.7l-0.7,2l0.7,2.7l-2,0.7
	l-2-0.7l-2,1.4l-0.7,2l-1.4-0.7L41.1,33.1z"/>
<path class="Braga" d="M28.9,40.4l-6.8-2l-0.7-2l1.4-2l0.7-2l-0.7-2l1.4-2l1.4-2l2-0.7l1.3-1.3l2,0.7l2-0.7h3.4l-0.7,2l2,1.4l2,2l-0.7,2l-2,0.7
	h-2.7l-2,1.3v2.7L28.9,40.4z"/>
<path class="Terras de Bouro" d="M47.2,19.6l-2.7,0.7l-1.4-2.7l-2-0.7l-1.3-0.7l-2,0.7l-2-0.7l0.7-2l2-1.3l-0.7-2l0.7-2l0.7-2l2,0.7l2-1.4l2-0.7l1.4-2l2-0.7
	L51,0l2,0.7h2l2.7,0.7l2-0.7l-1.6,6.9l-1.4,5.4l-2,1.3l-0.7,2l-4.7,1.3L47.2,19.6z"/>
<path class="Amares" d="M39.1,20.3L37.7,23l-1.4,1.3H33l-2,0.7l-2-0.7l0.7-2l0.7-2l2-2l0.7-2h2.7l2,0.7l2-0.7l1.3,0.7l2,0.7l1.4,2.7l-1.4,1.3
	L39.1,20.3z"/>
<path class="Vila Verde" d="M20.1,19.6l2-5.4l-0.7-2h2.7l2-0.7l4.1-2.7l2-0.7l2,0.7l2-0.7l2,0.7l-0.7,2l0.7,2l-2,1.3l-0.7,2H33l-0.7,2l-2,2l-0.7,2
	l-0.7,2l-1.3,1.3l-2,0.7l-1.4,2L22.8,27l-2,0.7l-1.4-2l0.7-3.4V19.6z"/>
<path class="Barcelos" d="M10.6,42.5l-4.8-1.3l-2-1.3l3.7-3.2v-2.2L6.1,32v-2.4l-1-4l1.1-3.2l2.4-0.9h2.7l1.7-1l3.1,1l1.4,0.7h2.7l-0.7,3.4l1.4,2
	l2-0.7l1.4,1.3l-1.4,2l0.7,2l-0.7,2l-1.4,2l-2,2.7l0.7,2l-1.4,2.7l-2,0.7l-2-0.7v2l-3.4-1.3L10.6,42.5z"/>
<path class="Esposende" d="M5.1,25.7l1,4V32l1.3,2.4v2.2l-3.7,3.2l-1.2,0V37l-1.4-2.7v-5.4L0,24.3h1.1l2-1.3l3.1-0.5L5.1,25.7z"/>
</svg>
