<?xml version="1.0" encoding="utf-8"?>
<!-- Generator: Adobe Illustrator 24.3.0, SVG Export Plug-In . SVG Version: 6.00 Build 0)  -->
<svg version="1.1" id="Camada_1" xmlns="http://www.w3.org/2000/svg" xmlns:xlink="http://www.w3.org/1999/xlink" x="0px" y="0px"
	 viewBox="0 0 98.1 104.3" style="enable-background:new 0 0 98.1 104.3;" xml:space="preserve">
<path class="Freixo de Espada à Cinta" d="M45.6,103l-4-1.3l-0.7,2l-1.5,0.6l-3.4-1.3l1.4-2l-0.7-2l-0.7-2l2-0.7l2,0.7l2.7-0.7l8.1-6.1l-1.4-2l0.7-2l2-0.7l0.7-2
	l1.4-2l2,0.7l1.4,2l1.3,1.4l-5.4,5.4l0.7,2.7l-0.7,2l-1.3,2.7l-2,2.7l-2,1.4L45.6,103z"/>
<path class="Torre de Moncorvo" d="M40.8,82.1l2,2l2-0.7l2,0.7l0.7,2h2.7l-0.7,2l1.4,2l-8.1,6.1l-2.7,0.7l-2-0.7l-2,0.7l0.7,2l0.7,2l-1.4,2l-1.4,0.7h-2.7
	l-1.4-2l-2-1.3l-2-0.7v-2.7l1.4-2l-4.1-2l-2,2H19l-2.7-1.3l1.4-4l1.4-2l-0.8-2.1L17,84.1l3.4-2.7l2-0.7l2,0.7h2.7v-2l0.7-2l1.4-2
	l2,1.3l1.4,2l4.1,2.7L40.8,82.1z"/>
<path class="Mogadouro" d="M74.7,64l2,1.3l0.7,2l2.5,2l-0.7,2l-1.3,2L75.2,74l-0.7,2.7l-2-1.3l-3.4,4l-2-1.4l-4.7,0.7l-1.4,2.7l-2,4l-1.3-1.4l-1.4-2
	l-2-0.7l-1.4,2l-0.7,2l-2,0.7h-2.7l-0.7-2l-2-0.7l-2,0.7l-2-2l2.7-1.4l0.7-2.7l0.7-2l2-1.4l1.4-2l0.7-2h-2.7l-2-0.7v-2.7l1.4-2
	l0.7-1.3l2.7-0.7l2,0.7l2-1.3l2-0.7l2-0.7l2-0.7l1.4-2l3.4-0.7l2,1.3l2-0.7l2,0.7l2.7,0.7l1.4,2L74.7,64z"/>
<path class="Alfândega da Fé" d="M46.9,74.7l-2,1.4l-0.7,2l-0.7,2.7l-2.7,1.4l-4.1-0.7l-4.1-2.7l-1.4-2l-2-1.3l0.7-2l-0.7-2l1.4-2l-1.4-4l2-1.3l2-0.7l0.7-2
	l2-2l2-1.3l2,1.3l2,0.7v2.7l4.1,1.3l-0.7,1.3l-1.4,2V70l2,0.7h2.7l-0.7,2L46.9,74.7z"/>
<path class="Vila Flor" d="M29.9,73.4l-0.7,2l-1.4,2l-0.7,2v2h-2.7l-2-0.7l-2,0.7L17,84.1l-2-4v-2.7l-2.7-0.7v-2.7l-2-1.3l1.4-2l2-0.7l4.1-3.3l4.7,1.3
	l2-1.3l0.7-2l4.1,0.7l1.4,4l-1.4,2L29.9,73.4z"/>
<path class="Carrazeda de Anciães" d="M12.2,76.7l2.7,0.7v2.7l2,4l1.4,1.3l0.7,2l-1.4,2l-1.4,4l-2-0.7l-4.8,0.7l-2-0.7l-2-0.7l-4.8-7.4l-0.7-2l2-1.3
	c0.7-2,1.4-4,2-6l0.7-2h1.4l2-1.3l2,0.7l2,1.3V76.7z"/>
<path class="Macedo de Cavaleiros" d="M41.4,37.8l-0.7,5.4l0.7,2l2,0.7l4.1-0.7l4.8,2l1.4,2l4.1,1.3l2-0.7l0.7,2v2.7l0.7,2l-0.7,2l-1.4,2l-2,0.7L55,62l-2,0.7
	L51,64l-2-0.7L46.2,64l-4.1-1.3V60l-2-0.7l-2-1.3l-2,1.3l-2,2l-0.7,2l-2,0.7l-0.7-2v-2.7l0.7-2l-2-0.7l-1.4-2l2.7-4l-0.7-2l0.7-2
	l-2.7,0.7l-1.4-2v-2.7l-1.4-0.7l-0.7-2l-1.4-3.4v-2.7l2-0.7l4.1,1.3l0.7,2l2-0.7l1.4-2l4.1,1.3l4.1-1.3l1.4,2L41.4,37.8z"/>
<path class="Mirandela" d="M13.6,70l-2,0.7l-1.4,2l-2-0.7l-2-0.7l-1.4-2l0.7-2l-1.4-2l0.7-2l0.7-2.7l2-0.7l2-0.7v-2.7l0.7-2l2-1.3l1.4-4l-0.7-2v-2
	l0.7-2v-2.7l1.4-2l1.4-4l0.7-2l1.4-2l0.7,1.3l2,0.7l2,1.3v2.7l1.4,3.4l0.7,2l1.4,0.7v2.7l1.4,2l2.7-0.7l-0.7,2l0.7,2l-2.7,4l1.4,2
	l2,0.7l-0.7,2V62l0.7,2l-2,1.3l-4.1-0.7l-0.7,2l-2,1.3l-4.7-1.3L13.6,70z"/>
<path class="Miranda do Douro" d="M90,34.3l2.7,2.7l2.7,3.4l2,0.7l0.7,2l-3.4,5.4l-1.3,2.7l-2,2l-1.4,2l-0.7,2v2.7l-2,0.7l1.3,2l-2,1.4l-2-0.7l-2,2l-0.7,2
	l-2,2l-2.5-2l-0.7-2l-2-1.3L74,62l-1.4-2l0.7-1.3l1.4-2l0.7-2l-1.4-2l1.4-2l1.4-2l2,1.3l1.4,2l0.7,2l2,0.7l1.4-2v-2.7l-2-0.7l-0.7-2
	c0.9-1.8,1.4-3.5,2-5.4l-0.7-5.4l1.3-1.4L90,34.3z"/>
<path class="Vimoso" d="M63.9,36.5l2.7,0.7l3.5-4l3.8,1.9l2-1.4L75.3,31h5.3l4.7,2l-1.2,2l-1.3,1.4l0.7,5.4c-0.6,1.9-1.1,3.6-2,5.4l0.7,2l2,0.7v2.7
	l-1.4,2l-2-0.7l-0.7-2l-1.4-2l-2-1.3l-1.4,2l-1.4,2l1.4,2l-0.7,2l-1.4,2L72.7,60L70,59.3l-2-0.7l-2,0.7l-2-1.3l-3.4,0.7l0.7-2
	l-0.7-2v-2.7l-0.7-2v-4.7l1.4-2l1.4-4l-0.7-2L63.9,36.5z"/>
<path class="Bragança" d="M41.4,37.8l1.4-2l-1.4-2l-0.7-3.4h-2l-1.4-4l0.7-2l2-0.7l-0.7-2l2.7-6l-1.4-2l0.8-7.6l3.4-0.7l2-0.7L47.6,0L51,0.7l1.3,4.7
	h2l2,0.7l2,1.3l3.4-2L65.1,2l3.4,2.7v2.7l0.7,4l2,0.7l-0.7,2.7l0,2.7l-1.3,2v2.7l-1.3,4l0.7,2l1.6,4.8l-3.5,4l-2.7-0.7l-2,0.7l0.7,2
	l-1.4,4l-1.4,2v4.7l-2,0.7l-4.1-1.3l-1.4-2l-4.8-2l-4.1,0.7l-2-0.7l-0.7-2L41.4,37.8z"/>
<path class="Vinhais" d="M38.7,30.4h2l0.7,3.4l-4.1,1.3l-4.1-1.3l-1.4,2l-2,0.7l-0.7-2l-4.1-1.3l-2,0.7l-2-1.3l-2-0.7l-0.7-1.3l0.7-2l-1.4-4
	l-1.4-2.7V19l0.7-2l-2.4-2.8l2-1.4l2.7-4L18,6.1l-0.2-2.7L18.7,2l2.7,2.7l0.3-1.5l3-1.1l2.8,3.2l4.7-0.7l2-2l2.7,2l4.7,1.4l-0.8,7.6
	l1.4,2l-2.7,6l0.7,2l-2,0.7l-0.7,2L38.7,30.4z"/>
</svg>
