<?xml version="1.0" encoding="utf-8"?>
<!-- Generator: Adobe Illustrator 24.3.0, SVG Export Plug-In . SVG Version: 6.00 Build 0)  -->
<svg version="1.1" id="Camada_1" xmlns="http://www.w3.org/2000/svg" xmlns:xlink="http://www.w3.org/1999/xlink" x="0px" y="0px"
	 viewBox="0 0 116.2 94.7" style="enable-background:new 0 0 116.2 94.7;" xml:space="preserve">
<path class="Vila Velha de Rodão" d="M49.6,82.6c-2.1,2.8-1.8,1.9-2.7,4.7l-2,0.7l-0.7,2l-2,1.4l-1.4,2L38,94.7l0.7-6l2.1-1.5l0.6-1.9l-0.7-2l1.4-4.7l1.4-2
	c-0.8-2.5-0.8-1.5,0-4l2.4-1l1,1l4.1-1.3l0.7-2l4.8-0.7l-0.7,2l6.8,2h2.7l0.7,2l-0.2,3.8h-2.6l0.5,1.4c-3.2,0.9-4.3,1-7.1,2.9l-2,2
	l-2-0.7l-0.7-2L49.6,82.6z"/>
<path class="Proença-a-Nova" d="M42.1,78.6l-1.4,4.7l0.7,2l-0.6,1.9l-2.1,1.5l-1.3-2l-0.7-2l-2-1.3l-1.4-2l-5.4-1.3v-5.4l-1.4-2l-2,0.7l-2-1.3l-0.7,0.2
	l0.7-1.6l4.1-2l0.7-2l2-0.7l0.7-2.2l2,0.8l2-0.7l2-1.3l1.4-3.4l5.4,1.3l1.4,4l-0.7,2l1.4,4l1.1,1.1l-2.4,1c-0.8,2.5-0.8,1.5,0,4
	L42.1,78.6z"/>
<path class="Vila de Rei" d="M19.7,72.5v2l-0.7,2v2.7l-1.4,2l0.7,2l-0.7,2l-1.4,2L14.9,86h-2.7l-2.1-1l-2.7-1.5l-3.3-0.8l1.4-6l-0.7-2l1.4-2.1l2-1.2
	l1.4-0.7l4.1,2.7l2,0.7L19.7,72.5z"/>
<path class="Idanha-a-Nova" d="M110.8,60.1l-2,0.7l-1.3,2.7l1.3,2.7l-1.3,2l0.7,2.7l-2,2.7l-0.7,3.4l-4,1.3l-2-0.7h-2.7l-2,1.3l-8.1-1.3
	c0.6-2.8,0.8-3.4,2.4-5.8l2-4l0.7-2l-2-0.7L87,65.8l-4.1-2l-1.4-2l-2,0.7l-2-1.3l1.4-2l1.4-4.7c-0.7-2-1.4-4-2-6l-1.4-2V45v-2.7
	l0.7-2l2-1.3l1.4-2l4.1-2l0.7,2l2,1.3l2-1.3l0.7-2l2-0.7c2,0.7,4.1,1.3,6.1,2l2-1.3l2,0.7c2-0.7,4.1-1.3,6.1-2l3.1-1.9l1,3.3
	l2.1,0.3l1.3,4V42l-0.7,2v2.7l-1.4,4v2.7l-0.7,3.4l-2,1.3L110.8,60.1z"/>
<path class="Castelo Branco" d="M65.2,72.5h-2.7l-6.8-2l0.7-2l-4.8,0.7l-0.7,2l-4.1,1.3l-2-2l-1.4-4l0.7-2l-1.4-4l-5.4-1.3l-0.7-2l2-0.7l2.3,0.7l2.1-0.5
	l1.7,1.2l0.7-2l-0.7-2l4.1-2l-2-2l0.7-2l-0.7-2l2-0.7l-0.7-2.7l0.7-2l1.4-2l4.1-2.7l4.8,1.4l4.1-1.4l2,4v2.7l0.7,2l2.1,0.9l1.3-2.3
	l2.7-0.7l2,0.7l0.7,2l2,1.3l1.4,2c0.7,2,1.4,4,2,6l-1.4,4.7l-1.4,2l2,1.3l2-0.7l1.4,2l4.1,2l2.7-0.7l2,0.7l-0.7,2l-2,4
	c-1.6,2.4-1.8,3-2.4,5.8l-3.4,0.7l-2.7,1.4h-4l-2.7,0.7l-2-0.7l-2-1.4h-4.1l0.2-3.8L65.2,72.5z"/>
<path class="Oleiros" d="M36.7,57.1l0.7,2L36,62.5l-2,1.3l-2,0.7l-2-0.8l0.6-1.8l-0.7-2l-2-0.7l-2-0.7l-1.3-2l-2-1.3l-2.7-0.7l-2-1.3l-2-2l2.7-1.3
	l2-0.7l2.7-1.3l2-1.4l2-0.7l2-0.7l2-0.7v-4l4.1-2l2,1.3l2,1.3l2,0.7l2,1.4l2-0.7h2.7l0.7,2.7l-2,0.7l0.7,2l-0.7,2l2,2l-4.1,2l0.7,2
	l-0.7,2l-1.7-1.2L41,57.1l-2.3-0.7L36.7,57.1z"/>
<path class="Sertã" d="M29.9,59.8l0.7,2L30,63.6l-0.7,2.2l-2,0.7l-0.7,2l-4.1,2l-0.7,1.6l-2,0.5l-4.1,1.3l-2-0.7l-4.1-2.7l-3.3,1.9l-2.1-3.9
	l-2,1.3l-2-4l0.7-3.4c3.1-1,1.8-0.7,4-1.7c3.2-1.4,1.3,0,4.8-2.4c2.7-1.8,1.8-0.8,2.7-3.4l1.4-3.4l2-0.6l2,2l2,1.3l2.7,0.7l2,1.3
	l1.3,2L29.9,59.8z"/>
<path class="Penamacôr" d="M90.4,34.9l-0.7,2l-2,1.3l-2-1.3l-0.7-2l-4.1,2l-0.7-2.7l2-2.7v-2.7l-0.7-2l0.7-0.7l2.7-4l-2-0.7l0.7-2l-0.7-2.7l3.4-0.7
	l1.4-2.7l2,0.7l2,1.3l2-1.3l0.7-3.4l2.7,0.7l0.7,2.7l2,0.7l2-0.7l2-1.3l2,1.3l0.1,1.6l-2,4l-0.7,2.7l0.7,2l0.7,2.7l0.7,2l5.4,0.7
	l1,1.8l-3.1,1.9c-2,0.7-4.1,1.3-6.1,2l-2-0.7l-2,1.3c-2-0.7-4.1-1.3-6.1-2L90.4,34.9z"/>
<path class="Fundão" d="M68,45.3l-2.1-0.9l-0.7-2v-2.7l-2-4l-4.1,1.4l-4.8-1.4l-4.1,2.7l-1.4,2l-0.7,2h-2.7l-2,0.7l-2-1.4l-2-0.7l0.7-1.3l-0.7-2
	l0.7-2l1.4,2l2-1.3l1.4-2l0.7-2l-0.7-2l2,0.7l2-0.7l4.1-2.7l2,0.7l2.7-0.7v-2.7l8.1-2.7l3.4-0.7l6.8-3.3l2-0.7l2-0.7l1.4-0.1
	l1.3,0.1l0.7,2.7l-0.7,2l2,0.7l-2.7,4l-0.7,0.7l0.7,2v2.7l-2,2.7l0.7,2.7l-1.4,2l-2,1.3l-0.7,2V45v1.3l-2-1.3l-0.7-2l-2-0.7L69.3,43
	L68,45.3z"/>
<path class="Belmonte" d="M76.8,4.7V2l2-1.3l2-0.7l2,0.7v2.7l-0.7,2l0.7,2l-2.7,4l-2,1.3l1.4,2l0.7,2l-2,0.7l-2,0.7l-2-0.7v-2V8.7l0.7-2L76.8,4.7z"/>
<path class="Covilhã" d="M46.9,30.9l-2-0.7l-1.4,0.7l-1.4-2l-2-1.3l-0.7-2l0.7-2l1.4-3.4l3.4-0.7l4.1-3.4l2.7-0.7l2-1.3l0.7-2l1-1.9l1.7,0.6h2.7
	l2-0.7l2-6l2-2l2,0.7h2.7l2,1.4l4.1-2v2.7l-2,2l-0.7,2v6.7v2l2,0.7l-6.8,3.3l-3.4,0.7l-8.1,2.7v2.7L55,28.2l-2-0.7l-4.1,2.7
	L46.9,30.9z"/>
</svg>
