<?xml version="1.0" encoding="utf-8"?>
<!-- Generator: Adobe Illustrator 24.3.0, SVG Export Plug-In . SVG Version: 6.00 Build 0)  -->
<svg version="1.1" id="Camada_1" xmlns="http://www.w3.org/2000/svg" xmlns:xlink="http://www.w3.org/1999/xlink" x="0px" y="0px"
	 viewBox="0 0 95.2 60.7" style="enable-background:new 0 0 95.2 60.7;" xml:space="preserve">
<path class="Pampilhosa da Serra" d="M72.8,56.6L70.1,58l-2,0.7c-2.2,0.9-1.4,0.9-4.8,2l0.7-2l3.4-4l0.7-2l2-0.7l0.7-2l-0.7-2v-2.7l-1.4-2l4.1-1.3l2,0.7l2-0.7
	l-1.4-2.7l1.4-2l4.1-2.7l4.8-0.7l2.1-2l1.9,0.7l-0.7,2l0.7,2l2,1.3l1.4,2l1.4-0.7l0.7,2l-0.7,2l-1.4,2l-2,1.3l-1.4-2
	c-0.8,2.5-0.8,1.5,0,4l-0.7,1.3L85,47.2l-4.1,2v4l-6.1,2L72.8,56.6z"/>
<path class="Góis" d="M68.7,43.2l1.4,2v2.7l0.7,2l-0.7,2l-2,0.7l-0.7,2l-3.4,4L63.3,56l-1.4-2l-0.7-2l-0.7-2l0.7-2l-0.7-2l-2-1.4l0.7-2l0.7-2
	l0.7-2l-0.7-2l-0.7-2v-2.7c2.4,0.6,4.5,1.2,6.8,2l0.7,2h5.4l2-1.3l1.3,4.7l1.4,2.7l-2,0.7l-2-0.7l-2,0.7L68.7,43.2z"/>
<path class="Lousã" d="M59.9,40.5l-0.7,2l-0.7,2l-2.7,4l-2.7-0.7l-2.7-3.4l-2-1.3l0.7-4l0.7-2l-0.7-2l2-0.7l2,0.7l2-0.7l2-1.3l2-1.3v2.7l0.7,2
	l0.7,2L59.9,40.5z"/>
<path class="Miranda do Corvo" d="M53.1,47.9l-2,0.7l-0.7,2c-2.8-0.6-4.7-1.1-7.5-2l-2.7-4.7l3.4-2l-0.7-4.7l1.4-3.4h0.7h2l2,1.3l0.7,2l-0.7,2l-0.7,4l2,1.3
	L53.1,47.9z"/>
<path class="Penela" d="M47,56l-1.4,2l-0.7,2l-2,1.4l-2,0.7v-2.7l0.7-2l-1.4-2l-0.7-2l-4.7,0.7l-0.7-3.4l2-0.7l2-0.7l-1.4-2l1.4-0.7l2-2.7l2.7,4.7
	c2.7,0.9,4.6,1.4,7.5,2l-1.4,2l0.7,2L47,56z"/>
<path class="Condeixa-a-Nova" d="M36.8,47.2l1.4,2l-2,0.7l-2,0.7l-1.4-1.3h-3.4l-1.4-2.7l-3.4-3.4l2.7-4l0.7-1.3l1-2l1.7,1.3h2.7l-0.7,2l0.7,2l2,0.7l2-1.3
	l2,1.3l0.7,2l-2,2.7L36.8,47.2z"/>
<path class="Soure" d="M27.9,51.3h-3.4l-2,4l-2-0.7l-1.4-2l-2.7,0.2l-2.1-1.5l-1-2.5l-1.7-2.9l-0.7-2l1.4-1.3h4.1l2-0.7l0.7-2l-2-1.3l0.7-2l2-0.7
	l4.1,1.3l3.4,2l-2.7,4l3.4,3.4l1.4,2.7h3.4l1.4,1.3l0.7,3.4l-4.1,2L30,58v2.7l-2-2V51.3z"/>
<path class="Arganil" d="M80.9,34.5l-4.1,2.7l-1.4,2l-1.3-4.7l-2,1.3h-5.4l-0.7-2c-2.3-0.8-4.4-1.4-6.8-2l-1.4-2l-2-2.7l4.1-2c0.9-2.6,0.2-1.6,3.4-4
	l2,5.4l2-1.3l2.7,3.4l0.7-2l2-0.7l0.7-2l2-2.4l2,0.4l-0.7,2l2-0.7l10.2,3.4l2,2.7l-1.4,3.4l-1.9-0.7l-2.1,2L80.9,34.5z"/>
<path class="Vila Nova de Poiares" d="M55.8,27.1l2,2.7l1.4,2l-2,1.3l-2,1.3l-2,0.7l-2-0.7l-2,0.7l-2-1.3l-0.7-2l1.4-3.4h4.1L55.8,27.1z"/>
<path class="Oliveira do Hospital" d="M87.1,11l2,0.7c0.8,2.5,0.8,1.5,0,4c1.7,2.5,0.8,1.8,3.4,2.7l-0.7,2l-2,0.7c-0.5,0.4-2.4,4-2.7,4.7l-8.2-2.7l-2,0.7l0.7-2
	l-2-0.4l0.7-2.3l2.7,0.7c1.6-2.4,1.2-1.4,2-4l-2-1.3l1.4-2l-2-1.3c0-2.5-0.1-1.6,0.7-4c1.1-3.1,0.1-1.4,3.4-3.3
	c2.6-1.5,0.5-0.8,4.1-2l2.7,4c-2.5,1.7-1.7,0.9-3.4,3.4L87.1,11z"/>
<path class="Tábua" d="M70.1,13l8.1-4v2l2,1.3l-1.4,2l2,1.3c-0.9,2.6-0.5,1.7-2,4L76.2,19l-0.7,2.3l-2,2.4l-0.7,2l-2,0.7l-0.7,2l-2.7-3.4l-2,1.3
	l-3-8.1l4.4-3.4L70.1,13z"/>
<path class="Penacova" d="M47.7,28.4l-1.4,3.4l-2.7-2v-2.7l-0.7-2l-2-4l2-1.3l-0.7-2l2.7-2.7l4.1,1.3v1.4c2.6,0.9,1.7,0.4,4.1,2l2-1.3l2-0.7h2.7
	l2.4,0.7l0.9,2.7c-3.2,2.4-2.5,1.4-3.4,4l-4.1,2l-4.1,1.3H47.7z"/>
<path class="Coimbra" d="M46.3,31.8l0.7,2h-2.7l-1.4,3.4l0.7,4.7l-3.4,2l-0.7-2l-2-1.3l-2,1.3l-2-0.7l-0.7-2l0.7-2h-2.7l-1.7-1.3l-1,2l-0.7-2v-2.7
	l-0.7-2l-1.4-4l-0.7-2l2-1.3l1.4,4l2-0.7l2,0.7v-2.7l3.4-0.7l0.7-2.7l1.4-2l2-0.7l0.7-2l2,0.7l0.7,2l-2,1.3l2,4l0.7,2v2.7L46.3,31.8
	z"/>
<path class="Montemor-o-Velho" d="M12.3,42.5l-1.4-2.7l4.1-2.7l0.7-1.3c-0.9-2.7-1.8-5.4-2.7-8.1l-1.4-5.4l2-0.7l2,0.7l5.4,0.7l1.4,2h2l0.7,2l1.4,4l0.7,2v2.7
	l0.7,2l-0.7,1.3l-3.4-2l-4.1-1.3l-2,0.7l-0.7,2l2,1.3l-0.7,2l-2,0.7H12.3z"/>
<path class="Figueira da Foz" d="M11.6,45.9l1.7,2.9l1,2.5l-3.4-1.3l-2,0.7l-1.4,2l-2-0.7H2.8L0,50.1l3.6-12l-0.7-2l-2.7-2.7L1,30l1.3,0.3l2.1-9.7l5.9,2.4
	l1.4-0.7l1.4,5.4c0.9,2.7,1.8,5.4,2.7,8.1L15,37.2l-4.1,2.7l1.4,2.7l-1.4,1.3L11.6,45.9z"/>
<path class="Cantanhede" d="M33.4,15l-0.7,2.7l0.7,2l-2,1.3l-2,0.7l0.7,2l2,1.3v2.7l-2-0.7l-2,0.7l-1.4-4l-2,1.3h-2l-1.4-2l-5.4-0.7l-2-0.7l-2,0.7
	l-1.4,0.7l-5.9-2.4l2-8.1l4.6,1.8l2,0.7l2-1.3l1.4-2l0.7-2l-0.7-2l2,1.3h2.7V6.3l1.4-3.4l4.1,2l-0.7,2l-0.7,2.7l2,2l2-0.7l3.4-0.7
	V12L33.4,15z"/>
<path class="Mira" d="M16.4,7.6l0.7,2l-0.7,2l-1.4,2L13,15l-2-0.7l-4.6-1.8L9.4,0l5,4.9L16.4,7.6z"/>
</svg>
