<?xml version="1.0" encoding="utf-8"?>
<!-- Generator: Adobe Illustrator 24.3.0, SVG Export Plug-In . SVG Version: 6.00 Build 0)  -->
<svg version="1.1" id="Camada_1" xmlns="http://www.w3.org/2000/svg" xmlns:xlink="http://www.w3.org/1999/xlink" x="0px" y="0px"
	 viewBox="0 0 132.4 88.6" style="enable-background:new 0 0 132.4 88.6;" xml:space="preserve">
<path class="Mourão" d="M125.9,76.7l2,0.7l0.7,4l3.8,5.4l-2.6,0.5l-2.7,1.3l-1.4-1.3l-1.4-2l-1.4-2l0.7-2l-2-0.7l-2-0.7l-1.3-2l-0.7-2l-0.7-2
	l-2-1.4l-2,1.4l-2,0.7l-2,1.3l-2,0.7l-0.7,2l-2-2l0.7-2l-0.7-2.7l0.7-2l2-0.7l1.4-4.7l1.4-2l1.4-3.4h2l3.1,2.1l1.3,3.4l2,2.7l4,4
	l1.3,3.4L125.9,76.7z"/>
<path class="Reguengos de Monsaraz" d="M101.2,53.7l3.4,0.7l2-0.7l2.7,1.3l0.7,2l0.7,2l-1.4,3.4l-1.4,2l-1.4,4.7l-2,0.7l-0.7,2l0.7,2.7l-0.7,2l2,2l-2,1.3l-0.7,2
	l-2,1.4c-2-2-4.1-4-6.1-6.1l-2-1.3v-2.7l-4.8-4l-1.4-2l2.7-3.4l0.7-2l1.4-4l0.7-1.3l2-1.3l1.4-2l1.4-1.3l2,0.7L101.2,53.7z"/>
<path class="Portel" d="M101.2,83.3l-0.7,2l-2,1.3l-6.8,0.7l-6.8-0.7c-2-0.8-4-1.3-6.1-2l-1.4-2c-2.4-0.8-6.6-1.3-9.5-2l-2-1.3l-2-1.3l-2-0.7l0.7-2
	v-4l2.7-2l2,0.7l0.7,2l2-1.3l2-4l4.1-2l2-1.3l4.1-1.4l2,4l2.7,1.3l1.4,2l4.8,4v2.7l2,1.3C97.1,79.2,99.2,81.3,101.2,83.3z"/>
<path class="Viana do Alentejo" d="M60.5,69.2l2,2v4l-0.7,2l-2.7-1.3l-2-0.7l-2,1.3l-2-0.7l-1.4-2h-2.7l-2.7,0.7l-2,0.7l-4.1-1.3l-2-2l-5.4-0.7l-1.4-2
	l-2.7-0.7l2.7-4l-0.7-2l2.7-4l2,0.7l4.8-1.3l2,1.3l3.4,0.7l1.4,2v2.7l0.7,2l2.7,0.7v2l2-1.4l6.1-3.3h2.7v2.7L60.5,69.2z"/>
<path class="Alandroal" d="M114.5,50.4l-1.4,3.4l-0.7,2l0.3,3.3h-2l-0.7-2l-0.7-2l-2.7-1.3l-2,0.7l-3.4-0.7l-2-1.4l-2-0.7l-1.4,1.3l-1.4-2l-2-0.7l2-4
	l2-0.7V43l-1.4-4l1.4-4l2-0.7l0.7,2l1.4-2l1.4-1.3l2-0.7l2,0.7l1.3-2.7l2-1.4l2,0.7l4.1-1.3l1.4-2.7l2.7-0.7l1.6,2l-2.7,1.3l-1.4,4
	l-0.7,6.1l2,1.3l-1.4,4l-1.7,3.3L114.5,50.4z"/>
<path class="Redondo" d="M92.4,50.4l2,0.7l1.4,2l-1.4,2l-2,1.3l-0.7,1.3l-4.1-2l-1.4-2v-2l1.4-2l-2-0.7l-2,1.3l-2-0.7l1.4-2l-1.4-2l1.4-4l-0.7-2
	l-4.1-3.4l0.7-1.3l2.7-2.7c2.5-1.6,3.4-1.8,6.1-2.7l2,0.7l2-0.7l0.7-2l1.3,2l2,1.3l1.4,2l-0.7,2l-1.4,4l1.4,4v2.7l-2,0.7L92.4,50.4z
	"/>
<path class="Évora" d="M86.3,53.7l1.4,2l4.1,2l-1.4,4l-0.7,2L87,67.2l-2.7-1.3l-2-4l-4.1,1.4l-2,1.3l-4.1,2l-2,4l-2,1.3l-0.7-2l-2-0.7l-2.7,2l-2-2
	l0.7-2v-2.7h-2.7l-6.1,3.3l-2,1.4v-2l-2.7-0.7l-0.7-2v-2.7l-1.4-2l0.7-2l2-1.3l0.7-2l-0.7-2l-2-1.3l-2-0.7l-2.7-4v-4l4.7,0.7l0.7,2
	h2.7l2-1.3v-4l-2-1.4v-2.7h2.7l2,1.3l4.1-2.7l4.1,6l2,1.3l2.7-1.3l1.3-4l-0.7-2l1.4-4H72v-2.7l2,0.7l3.4,6l0.7,2l4.1,3.4l0.7,2
	l-1.4,4l1.4,2l-1.4,2l2,0.7l2-1.3l2,0.7l-1.4,2V53.7z"/>
<path class="Montemor-o-Novo" d="M41.4,46.3l2.7,4l2,0.7l2,1.3l0.7,2l-0.7,2l-2,1.3l-0.7,2l-3.4-0.7l-2-1.3l-4.8,1.3l-2-0.7l-2.7,4l-2-0.7l0.7-2l-4.7-8.1
	l-2-0.7l-1.4,2l-2,0.7l-4.7-1.4h-4.1L6.8,51v-2l-0.7-2l0.7-2l2-1.3l2.7-2l1.4-2l2,2l2-0.7h2.7l2-0.7l1.4-2v-0.7v-2.7l-2-1.4l-2-1.3
	l-0.7-2.7h-2.7l-2-0.7l-2-1.3l-2.4-0.4l3.7-3.7H17l4.8-2.7l0.7-2l5.4-1.3l2-0.7l2,2l0.7,2l1.4,0.7l2-0.7l2,1.3l0.7,2l4.1,1.4v2
	l6.8,8.1v2.7l2,1.4v4l-2,1.3h-2.7l-0.7-2l-4.7-0.7V46.3z"/>
<path class="Vendas Novas" d="M8.8,43.7l-2,1.3l-0.7,2l0.7,2v2l-2.7-0.7H1.4l-0.7-2.7l-0.7-2l0.7-2l1.4-2l1.3-1.3l2-0.7l2.7-2.7l2-1.3l1.4-2l1.4-2
	l0.7-2.7l2,0.7h2.7l0.7,2.7l2,1.3l2,1.4v3.3l-1.4,2l-2,0.7H17l-2,0.7l-2-2l-1.4,2L8.8,43.7z"/>
<path class="Vila Viçosa" d="M109.4,28.9l-2,1.4l-1.3,2.7l-2-0.7l-2,0.7l-1.4,1.3l-1.4,2l-0.7-2l-2,0.7l0.7-2l1.4-3.4l1.4-2l2-3.4l2-0.7l2-1.3l2-0.7
	l2,1.3l2-1.3l0.7-2h2.7l1.4-2l2,0.7l2,0.7l-0.7,2l-0.7,4l-2.7,0.7l-1.4,2.7l-4.1,1.3L109.4,28.9z"/>
<path class="Borba" d="M101.9,24.2l-2,3.4l-1.4,2l-1.4,3.4l-1.4-2l-2-1.3l-1.3-2c1.4-2.1,1.9-3.9,3.4-6l2-0.7l2-1.3l-2.7-6.1l2-4l2,0.7l2,2l-0.7,2
	l0.7,2l0.7,2l1.4,2l0.7,2l-2,1.3L101.9,24.2z"/>
<path class="Estremoz" d="M99.9,19.5l-2,1.3l-2,0.7c-1.4,2.2-1.9,3.9-3.4,6l-0.7,2l-2,0.7l-2-0.7c-2.7,0.9-3.7,1.1-6.1,2.7l-2.7,2.7l-0.7,1.3l-0.7-2
	l-3.4-6l-2-0.7l0.7-2.7h6.8l2-0.7l0.7-2l-2.7-6l-2,0.7l-0.7-2l-2-0.7L72,13.4l2.7-0.7l1.4-2l2-0.7l2,0.7l2.7-0.7l2,1.3l0.7-2l1.4-2
	l2-0.7L91,6l2-1.3l-1.4-2l1.4-1.3l2,1.3l2,0.7l2,1.3l0.7,2l-0.7,1.3v1.3l-2,4L99.9,19.5z"/>
<path class="Arraiolos" d="M69.3,30.2l-1.4,4l0.7,2l-1.3,4l-2.7,1.3l-2-1.3l-4.1-6l-4.1,2.7l-2-1.3h-2.7l-6.8-8.1v-2l1.4-2l1.4-2l1.4-2l2-1.4l2,1.4
	l2,1.3c2.6-1.7,3.9-2.5,6.1-4.7l2-4l2-0.7l0.7-2l1.4,2.7l2,0.7H70l2,0.7l2.7,0.7l2,0.7l0.7,2l2-0.7l2.7,6l-0.7,2l-2,0.7h-6.8
	L72,27.5v2.7H69.3z"/>
<path class="Mora" d="M50.3,2l3.4,3.4l-0.7,2l2,0.7l2.7-1.3l2-1.3l2,0.7l0.7,1.3l1.4,2l-0.7,2l-2,0.7l-2,4c-2.2,2.2-3.5,3-6.1,4.7l-2-1.3l-2-1.4
	l-2,1.4l-1.4,2h-2l-2,0.7l-1.4-2l-0.7-2l2-1.3l-2-1.3l-2,0.7l-1.4-2l-2-0.7l-2-1.3l2-1.3l1.4-4l-0.7-2h2l2.7-4L43.5,0l2,0.7L50.3,2z
	"/>
</svg>
