<?xml version="1.0" encoding="utf-8"?>
<!-- Generator: Adobe Illustrator 24.3.0, SVG Export Plug-In . SVG Version: 6.00 Build 0)  -->
<svg version="1.1" id="Camada_1" xmlns="http://www.w3.org/2000/svg" xmlns:xlink="http://www.w3.org/1999/xlink" x="0px" y="0px"
	 viewBox="0 0 133.6 58.9" style="enable-background:new 0 0 133.6 58.9;" xml:space="preserve">
<path class="Vila Real de Santo António" d="M122.1,30.3V33l0.7,2.7l2.5,2.3l-5.9,3l-0.6-2.6l0.7-2v-2.7V31l-1.4-2L122.1,30.3z M129.9,36.7l-1.7-1.7l0.2-2.7l4.5,0.9
	l0.7,4.5L129.9,36.7z"/>
<path class="Castro Marim" d="M125.2,38l-2.5-2.3l-0.7-2.7v-2.7L118,29l-2-1.3l-2-1.3l-0.7-2l2.7-8.1l3.4-1.3l8.8,2.7l2.4-0.4v3.4l0.5,2.8l0.9,3.1
	l-0.7,2.8l1.3,2l0.3,1.9l-4.5-0.9l-0.2,2.7l1.7,1.7L125.2,38z"/>
<path class="Tavira" d="M113.1,46.1l-5.4,2.7l-2,1.6l-1.3-1.3l-1.4-4l-0.7-2h-2.7l-2.7-1.3v-2.7l1.3-2.7l-0.7-2l1.3-2l1.4-2l-2-0.7h-2.7l-2-0.7
	l-2.7-0.1l-1.7-4.2l0.4-3.2l0.7-2l1.4-2l1.4-2l2.2,0.7h2.6l2-0.7l2,0.7l1.4,1.4l0.7,2l0.7,2l1.4,2l0.7,2l2-0.7l1.4,2h2.7l1.4-0.7
	L118,29l1.4,2v2.7v2.7l-0.7,2l0.6,2.6l-2.1,1.1L113.1,46.1z"/>
<path class="Olhão" d="M99,56.2l-2.1-0.5l-2,0.7l-2-1.3l-1.4-2v-2.7l0.7-2l2,0.7l1.4-2l-0.7-2v-2l2.1-1.3l2.7,1.3l2.7-0.1l0.7,2.1l1.4,4l1.3,1.3
	l-4.7,3.8L99,56.2z"/>
<path class="Faro" d="M91.5,50.4v2.7l1.4,2l2,1.3l2-0.7l2.1,0.5l-4,2.7h-6.7v-1.3l-2.7-1.7l-3.2-2.1l0.3-3.3l2-0.7v-2l-2-1.4l-1.4-2l2-1.3l2-1.4
	l2-0.7l2,1.3l2,0.7l2-1.4l1.4,1.4v2l0.7,2l-1.4,2l-2-0.7L91.5,50.4z"/>
<path class="São Brás de Alportel" d="M95.6,29.7h2.7l2,0.7l-1.4,2l-1.3,2l0.7,2l-1.3,2.7v2.7L94.8,43l-1.4-1.4l-2,1.4l-2-0.7l-2-1.3l-1.4-2v-2.7l-0.7-2l2-1.3
	l2-1.3l-0.7-2l2-0.7l2.7,0.1L95.6,29.7z"/>
<path class="Albufeira" d="M65.7,44.3l2,0.7l0.3,1.8L65.7,47l-4.4,1.1l-3.4,0.7l-2-1.6l-1.4-1.1l0.2-3.8l4.8-1.3c0.7-2,1.4-4,2-6l2-0.7l4.1,1.3l0.7,2
	L65.7,44.3z"/>
<path class="Lagoa" d="M38.4,44.7l-2.7-1.4l0.7-1.1l2-1.3l0.7-2l4.1,0.7l5.4,0.7l0.7,2l-0.7,2l1.1,2l-3.3,1.1L42.2,46L38.4,44.7z"/>
<path class="Portimão" d="M35.7,43.4H33l-4.7,0.7l0-2.4l-0.7-2l-1.4-2l-1.4-2l-2-1.3l2-4l6.1-1.3l2.2,1.2l2.6,0.2v2l1.4,2l0.7,2l2,0.7l-0.7,2l-0.7,2
	l-2,1.3L35.7,43.4z"/>
<path class="Lagos" d="M24.9,45.4l-2,2l-3.4,1.3l-2.7,0.7l-1.4-3.1l-0.7-2l-2-1.3l-2-1.4l-2-1.3l2-2l2-1.3l2-3.4l3.4-0.7l2-1.3l2,0.7l0.7,2l2,1.3
	l1.4,2l1.4,2l0.7,2l0,2.4l-2,1.3l-0.6,1.4L24.9,45.4z"/>
<path class="Vila do Bispo" d="M8.6,40.3l2,1.3l2,1.4l2,1.3l0.7,2l1.4,3.1l-4.7,0.7l-2,2H7.4l-1.5,2.1l-2.4,0.7L0,53.5l0,0v-3.4l2.7-2v-2.7l2-3.4L8.6,40.3
	z"/>
<path class="Alcoutim" d="M115.9,16.2l-2.7,8.1l0.7,2l-1.4,0.7h-2.7l-1.4-2l-2,0.7l-0.7-2l-1.4-2l-1.4-4l-1.4-1.4l-2-0.7l-2,0.7h-2.7l-2-0.7l-2-1.3
	v-2.7l1.4-2l2-0.7l2-0.7l2-0.7l2-1.3l2-1.3l2-0.7l2-0.7l2-0.7h2.7l2,0.7l2-0.7l2-1.3l4.1-1.3l3.2,0.3l2,2l1.3,2l0.7,3.4l1.3,3.4
	l0.7,2.7v3.4l-2.4,0.4l-8.8-2.7L115.9,16.2z"/>
<path class="Loulé" d="M82.6,46.3l2,1.4v2l-2,0.7l-0.3,3.3l-5.6-3.6l-2.7-1.4l-6.1-2L67.7,45l-2-0.7l2.7-6.7l-0.7-2l-4.1-1.3l-1.4-4.7l1.4-2l1.4-2
	v-2.7l1.4-2l2,0.7c2.7,0,5.4,0,8.2,0l1.9-1.2l1.5-2.1l1.3-2l0.7-2l2-1.3l2,0.7l4.8-2v2.7l2,1.3l-1.4,2l-1.4,2l-0.7,2l-0.4,3.2
	l1.7,4.2l-2,0.7l0.7,2l-2,1.3l-2,1.3l0.7,2v0.7v2l1.4,2l-2,0.7l-2,1.4l-2,1.3L82.6,46.3z"/>
<path class="Silves" d="M54.8,42.3l-0.2,3.8l-2-0.7l-2.7,0.9l-1.1-2l0.7-2l-0.7-2l-5.4-0.7l-4.1-0.7l0.7-2l-2-0.7l-0.7-2l-1.4-2v-2l2,0.7l2-0.7l2-4
	l2-1.3l2-4l-0.7-2.7l-1.4-2l2-0.7v-2.7l2-1.3l2-1.3l2,1.3l2-0.7h2.7l2,2.7l-0.7,1.3l2,0.7l6.1,5.4l-1.4,2v2.7l-1.4,2l-1.4,2l1.4,4.7
	l-2,0.7c-0.7,2-1.4,4-2,6L54.8,42.3z"/>
<path class="Monchique" d="M41.2,16.1h2.7l1.4,2l0.7,2.7l-2,4l-2,1.3l-2,4l-2,0.7l-2-0.7l-2.6-0.2L31,28.9l-6.1,1.3l-2,4l-0.7-2l-2-0.7l-2,1.3l-0.7-2
	l1.4-4l-0.7-2l2.7-4l0.7-2l2-0.7l0.7-2l1.4-1.3h2.7l4.1-1.3l2,0.7l2,1.3L41.2,16.1z"/>
<path class="Alzejur" d="M14.8,12.4V9.7l2.6,1.7l0.7,2l4.1,1.3l2,1.3l-0.7,2l-2,0.7l-0.7,2l-2.7,4l0.7,2l-1.4,4l0.7,2l-3.4,0.7l-2,3.4l-2,1.3l-2,2
	L4.7,42l1.3-4l-0.7-2.7l2-0.7l2-4l0.7-2.7l-1.4-4.7l2-3.4l1.4-2.7L14.8,12.4z"/>
</svg>
