<?xml version="1.0" encoding="utf-8"?>
<!-- Generator: Adobe Illustrator 24.3.0, SVG Export Plug-In . SVG Version: 6.00 Build 0)  -->
<svg version="1.1" id="Camada_1" xmlns="http://www.w3.org/2000/svg" xmlns:xlink="http://www.w3.org/1999/xlink" x="0px" y="0px"
	 viewBox="0 0 87 97.4" style="enable-background:new 0 0 87 97.4;" xml:space="preserve">
<path class="Sabugal" d="M81.6,70.7l1.3,5.4l2,2l2,1.3l-0.7,4l-3.8,1.8l-2.3,2.2l0.7,2l-2,2h-4l-2.7,2l-2-0.7L70,91.3l-2-1.3l-2,1.3l-2,0.7l-2-0.7
	l-0.7-2.7L58.4,88l-0.7,3.4l-2,1.3l-2-1.3l-2-0.7l-1.4,2.7L46.9,94h-2.7l-0.7-2l-1.4-2l2-1.3l2.7-4l-0.7-2l0.7-2v-2.7l2-1.3l2.7,0.7
	l8.1-1.3l4.8-5.4l-2-6.1l0.7-2l1.4-0.7l2.2,1.9l-0.1,2.8l2.7,3.4l4.8-3.4l6.1,2.7h2.2L81.6,70.7z"/>
<path class="Guarda" d="M59.8,75.9l-8.1,1.3l-2.7-0.7l-2,1.3l-2-0.7l-2,0.7l-2,1.3l-4.1,2l-2-1.4H34l0.7-2v-2.7l-1.4-2l-1.4-2l-0.7-2l0.7-2.7l0.7-2
	l2-0.7l2,0.7l2-0.7l0.7-2l2-2l0.7-2l1.4-2l0.7-2l2-1.3l2-3.4l2,0.7l1.4-2l1.4,4l0.7,2.7L53,55.1l0.7,2l2-1.3l1.4-2l2-0.7l0.7,2
	l0.7,2l2,1.3l2-0.7l1.4,2l-1.4,2l-1.4,0.7l-0.7,2l2,6.1L59.8,75.9z"/>
<path class="Manteigas" d="M29.2,74.5h2.7l1.4-1.3l1.4,2v2.7l-0.7,2h-2l-2-0.7l-2,2l-2,6l-2,0.7h-2.7l-1.7-0.6l1-2.1l0.7-4l1.4-2.7l0.7-2l2-0.7l2-1.3
	H29.2z"/>
<path class="Gouveia" d="M23.1,76.6l-0.7,2l-4.8-1.3l-0.7-2l-1.4-2l-2-2l-2-0.7l-2.7-0.7l1.4-4l0.7-2l2-0.7l2-0.7l2-0.7l3.4-1.3l2-0.7l1.4-2l1.4,1.3
	v2.7l2,0.7l2,0.7l0.7,2l2,1.3l-0.7,2.7l0.7,2l1.4,2l-1.4,1.3h-2.7h-2l-2,1.3L23.1,76.6z"/>
<path class="Seia" d="M20.4,85.3l-1,2.1l-1,1.9l-0.7,2l-2,1.3l-2.7,0.7l-4.1,3.4l-3.4,0.7l-2-2.7l-2-0.7l1.3-2.7l1.4-2l2-0.7l0.7-2l-2-0.7l-1.4-2
	l0.7-2l-0.7-2l-2-0.7l-1.4-2l1.4-2l2-1.3l-1.4-2l-1.3-2l0.7-2l2,0.7l2-1.3l2-1.3h2.7l-1.4,4l2.7,0.7l2,0.7l2,2l1.4,2l0.7,2l4.8,1.3
	l-1.4,2.7L20.4,85.3z"/>
<path class="Celorico da Beira" d="M43.5,55.7l-1.4,2l-0.7,2l-2,2l-0.7,2l-2,0.7l-2-0.7l-2,0.7l-0.7,2l-2-1.3l-0.7-2l-2-0.7l0.7-2l-0.7-2l2.7-0.7l-0.7-2l2-1.3
	l1.4-2l0.7-2l0.7-2l2-1.3h2.7l2-0.7l2,0.7l2-0.7l2,0.7l1.4,2l-2,3.4l-2,1.3L43.5,55.7z"/>
<path class="Fornos de Algodres" d="M27.8,60.4l-0.7,2l-2-0.7v-2.7l-1.4-1.3l-1.4,2l-2,0.7c0.7-2,1.4-4,2-6l0.7-4.7l-0.7-1.3l3.4-0.7l2.7-0.7l0.7-2l0.7-2l2-0.7
	l1.4,1.3l-2,1.3l2.7,3.4l-0.7,2l-0.7,2l-1.4,2l-2,1.3l0.7,2l-2.7,0.7L27.8,60.4z"/>
<path class="Trancoso" d="M42.8,47l-2-0.7l-2,0.7H36l-2,1.3L31.2,45l2-1.3l-1.4-1.3l0.7-3.4l-2.7-2.7l1.4-0.7l1.4-2l2-3.4v-2l-2-1.3l0.7-1.4l0.7-2
	l3.9,1.2l2.9,0.8l-0.7,2l1.3,2l2-0.7l4.1,2.7l4.8,2l-1.4,2l-0.7,2l0.7,2l2,0.7l-0.7,2l-4.1,1.3L46.9,47l-2-0.7L42.8,47z"/>
<path class="Aguiar da Beira" d="M25.8,47.7l-3.4,0.7l-2-2l-0.7-2l2-1.3l-0.7-2l-2.7-1.3l-0.7-2l1.4-2l0.7-2l0.7-2l1.4-2l3.4-0.7l1.4,2l2,1.3l1.4,1.3l1.4,2
	l-1.4,0.7l2.7,2.7l-0.7,3.4l-2,0.7l-0.7,2l-0.7,2L25.8,47.7z"/>
<path class="Almeida" d="M69.3,69.8l-2.7-3.4l0.1-2.8l-2.2-1.9l1.4-2l-1.4-2l2.7-5.4l0.7-2V45l2-0.7l0.7-3.4l2-0.7l1.4-2l2,0.7l2-0.7l2-0.7l2.1,1.5
	l1.2,1.5l0.8,4.6l0,1.9l-2.7,8.9v2.7l2.7,1.3l1.3,4.7l0,0l-2,2l-1.3,2.5h-2.2L74,66.5L69.3,69.8z"/>
<path class="Pinhel" d="M59.1,53.1l-2,0.7l-1.4,2l-2,1.3l-0.7-2l0.7-0.7L53,51.7l-1.4-4l-1.4,2l-2-0.7l-1.4-2l1.4-3.4l4.1-1.3l0.7-2l-2-0.7l-0.7-2
	l0.7-2l1.4-2c0.7-2,1.3-4,2-6l1.4-2l1-2.4l3.1-0.9l-0.7,4.7l-1.4,2l2.7,4l4.1,1.3l2,1.3l2,2l0.7,2l1.4,1.3L70,44.3l-2,0.7
	c0,1.8,0,3.6,0,5.4l-0.7,2l-2.7,5.4l-2,0.7l-2-1.3l-0.7-2L59.1,53.1z"/>
<path class="Mêda" d="M53,22.2l3.7,0.9l-1,2.4l-1.4,2c-0.7,2-1.3,4-2,6l-4.8-2l-4.1-2.7l-2,0.7l-1.3-2l0.7-2l-2.9-0.8l2.1-3.5l0.2-2.9l-0.7-0.9
	l-2-1.4l-0.7-2h2.7l2-0.7h4.8l2,0.7l0.7-2l2-0.7l2,0.7l0.7,2l-0.7,2l1.3,2L53,22.2z"/>
<path class="Figueira de Castelo Rodrigo" d="M74,38.3l-1.4,2l-2,0.7l-1.4-1.3l-0.7-2l-2-2l-2-1.3l-4.1-1.3l-2.7-4l1.4-2l0.7-4.7l-3.1,0.9l1.1-3l9.5-3.4l-0.7-3.1
	l2.1-3.6l3.4,1.3l1.5-0.6l0.7,2l2.7,2l0.7,2l2,2.7l0.7,3.4l1.4,2l1.3,4.7V33l-0.7,2.7v3.4l-2.1-1.5l-2,0.7l-2,0.7L74,38.3z"/>
<path class="Vila Nova de Foz Côa" d="M57.7,20.1l-1.1,3L53,22.2l1.3-4l-1.3-2l0.7-2l-0.7-2l-2-0.7l-2,0.7l-0.7,2l-2-0.7h-4.8l-1.3-2l-0.7-2l0.7-2l0.7-2l0.7-2.7
	l0.7-2L46.9,0l2,0.7L51.6,2h2.7l2-2l4.1,2l-1.4,2v2.7l2,0.7l2,1.3l1.4,2h2.7l1.4-0.7l-2.1,3.6l0.7,3.1L57.7,20.1z"/>
</svg>
