<?xml version="1.0" encoding="utf-8"?>
<!-- Generator: Adobe Illustrator 24.3.0, SVG Export Plug-In . SVG Version: 6.00 Build 0)  -->
<svg version="1.1" id="Camada_1" xmlns="http://www.w3.org/2000/svg" xmlns:xlink="http://www.w3.org/1999/xlink" x="0px" y="0px"
	 viewBox="0 0 114.9 93.4" style="enable-background:new 0 0 114.9 93.4;" xml:space="preserve">
<path class="Bombarral" d="M27.2,93.4l-2-2.7V88l0.7-2l-0.7-2l-2-1.1l0.7-1.6l2-1.3l2,0.7l1.4,2l2-1.3H34v1.3l0.7,2l-2,1.3l-1.4,4L30,91.3L27.2,93.4z"
	/>
<path class="Óbidos" d="M33.4,75.9l2.7,2.7l0.7,2L34,81.3h-2.7l-2,1.3l-1.4-2l-2-0.7l-2,1.3l-0.7,1.6l-2.7-2.3l-0.7-2l-0.7-2l-3.6-2.9h2.7l2.7-2
	l2.2-0.5l1.4,2h2.7l4.1,2L33.4,75.9z"/>
<path class="Peniche" d="M13.5,79.8v-2.7l-2.7-0.7l1.3-2l2,1.3l1.3-2l3.6,2.9l0.7,2l0.7,2l-1.4,2.7l-1.4,2l-2.2,0.1v-1.6l-0.7-2l0.6-0.7L13.5,79.8z
	 M1.9,68.5c2.5,0,2.5,3.9,0,3.9S-0.6,68.5,1.9,68.5z"/>
<path class="Caldas da Rainha" d="M42.2,80.6l0.7,1.3v2.7h-3.4l-0.7-2h-2.7l-1.3,2l-0.7-2v-1.3l2.7-0.7l-0.7-2l-2.7-2.7l-2-0.7l-4.1-2h-2.7l-1.4-2l-2.2,0.5
	l4-4l3.4-5.4l2.7-2L30,63.1l2.7,4l4.1-1.3l6.1,2v2.7l-2,0.7l1.4,2V80.6z"/>
<path class="Nazaré" d="M42.9,47l0.7,2l-1.4,2.7l0.8,2.1l-1.6,1.6l-2.1-0.7l-1.9,1.4l-0.6,1.4l1.2,4.1l-2.9-0.5l-2-2.9l3.4-5.4l1.3-2l-1.3-2.7
	l1,0.2l2-0.7L42.9,47z"/>
<path class="Batalha" d="M66,47l0.7,2l1.4,2v4l-1.4,2l-2.7-5.4L59.9,49h-2.7l-4.1-1.3v-1.3l-0.7-2l2-1.3h2.7l2,1.3l2-0.7l4.1,1.4L66,47z"/>
<path class="Porto de Mós" d="M53.1,46.4v1.3l4.1,1.3h2.7l4.1,2.7l2.7,5.4l0.7,2l-4.1,2.7l0.7,2l-2,2l-2.7-0.7h-6.1l-2,0.7l-0.7-2l0.7-2v-2.7l1.4-2
	l-0.7-2.7l-2,1.4l-1.4-4l0.6-3L51,47L53.1,46.4z"/>
<path class="Alcobaça" d="M48.8,48.7l-0.6,3l1.4,4l2-1.4l0.7,2.7l-1.4,2v2.7l-0.7,2l0.7,2l-2,2.7l-1.3,2.7l-1.4,3.4l-2-0.7l-2-0.7l-1.4-2l2-0.7v-2.7
	l-6.1-2l-4.1,1.3l-2.7-4l1.1-2.9l2-2l2,2.9l2.9,0.5l-1.2-4.1l0.6-1.4l1.9-1.4l2.1,0.7l1.6-1.6l-0.8-2.1l1.4-2.7l-0.7-2l-3.4,0.7
	l-2,0.7l-1-0.2l2-4.7l1.5-5.3l1.6,1.5l2,0.7l4,2l0.8,2.7L48.8,48.7z"/>
<path class="Marinha Grande" d="M48.3,40.3l-0.8,2l-4-2l-2-0.7l-1.6-1.5l1.2-4.1l4.6-12.1l1.3,0.3l2-0.7l1.4,2L49,26.2l1.4,1.3l-0.7,4.7l2,0.7l0.7,2l-0.7,2
	l-1.4,2L48.3,40.3z"/>
<path class="Leiria" d="M66.6,49l-1.4-4l-4.1-1.4l-2,0.7l-2-1.3h-2.7l-2,1.3l0.7,2L51,47l-2.2,1.7L48.3,45l-0.8-2.7l0.8-2l2-1.4l1.4-2l0.7-2l-0.7-2
	l-2-0.7l0.7-4.7L49,26.2l1.4-2.7l-1.4-2l-2,0.7l-1.3-0.3l1.5-4l1.2-4.1l2.6,1l8.2,4l2.7,2.7l2,4l2,2h2.7l3.4,3.4l0.7,1.3l-4.1,1.3
	l-0.7,2l0.7,2l-0.7,2l4.1,2.7l-2,4L68,47L66.6,49z"/>
<path class="Pedrógão Grande" d="M110.1,22.8c-2.7,1.8-1.7,1.2-4.8,2.4l0.7-1.7l-1.4-2.7l-1.4-2v-2.7l1.4-2.7l2,0.7c2.6-1.7,1.8-0.8,2.7-3.4l2-5.4l1.3,4
	l1.4,2l0.7,2.7l-2,5.4C111.9,22.1,112.8,21.1,110.1,22.8z"/>
<path class="Castanheira de Pêra" d="M111.5,5.4l-2,5.4c-0.9,2.6-0.1,1.6-2.7,3.4l-2-0.7v-2.7V8.1l1.4-2l0.7-2l2.7-4l2,1.4l0.7,2L111.5,5.4z"/>
<path class="Figueiró dos Vinhos" d="M101.3,26.9l-0.7,3.4h-4.1l0.7-3.4l2-6l-2-0.7l-2,1.4l-0.7-1.4l2-3.3l-0.7-1.4l0.7-2l1.4-2l2.7-1.3l-0.7-2
	c1.6-2.4,1.2-1.4,2-4c2.6-0.9,1.5-0.8,4.8,0L106,6l-1.4,2v5.4l-1.4,2.7v2.7l1.4,2l1.4,2.7l-0.7,1.7C104.9,25.6,102,26.6,101.3,26.9z
	"/>
<path class="Alvaiázere" d="M96.5,30.2l-0.7,3.4l-2,1.3h-2.7l-2,2.1l-2-0.8l-0.7-2l-0.7-4.7l-1.4-2v-2.7l2-0.7l2-0.7l2,1.3l4.1-1.3l0.7-2l2-1.4l2,0.7
	l-2,6L96.5,30.2z"/>
<path class="Ansião" d="M91.8,14.8v2.7l2-0.7l2-1.4l0.7,1.4l-2,3.3l0.7,1.4l-0.7,2l-4.1,1.3l-2-1.3l-2,0.7L85,20.8l-4.1-4.7v-2.7l0.7-2l4.1-2
	l4.7-0.7l0.7,2l1.4,2L91.8,14.8z"/>
<path class="Pombal" d="M80.2,29.5l-1.4,2l-4.1,1.3l-2-0.7l-0.7-1.3l-3.4-3.4H66l-2-2l-2-4l-2.7-2.7l-8.2-4l-2.6-1l2.5-8.2l2.8,1.8h2.7l2,0.7l1.4-2
	l2-0.7l3.4,1.3l2.1,1.5L70,8.1l1.4,2l2,0.7l2-4h3.4v7.4l2,2l4.1,4.7l1.4,3.4l-2,0.7v2.7L80.2,29.5z"/>
</svg>
