<?xml version="1.0" encoding="utf-8"?>
<!-- Generator: Adobe Illustrator 24.3.0, SVG Export Plug-In . SVG Version: 6.00 Build 0)  -->
<svg version="1.1" id="Camada_1" xmlns="http://www.w3.org/2000/svg" xmlns:xlink="http://www.w3.org/1999/xlink" x="0px" y="0px"
	 viewBox="0 0 57.1 67.8" style="enable-background:new 0 0 57.1 67.8;" xml:space="preserve">
<path class="Lisboa" d="M22.9,66.5l-1.3-0.7h-1.1l1.1-2.1l0.8-1.9l0.1-2l2-1.3l2-1.3l3.5,0.4l2.9,1.4l-0.7,3.6l-2,2L22.9,66.5z"/>
<path class="Amadora" d="M21.5,63.7l-1.8-0.6H17l1.4-2l-0.7-2l2-3.4l-0.1-2.5l3.5,1.2l2,1.3l1.4,1.3l-2,1.3l-2,1.3l-0.1,2L21.5,63.7z"/>
<path class="Oeiras" d="M15.5,67.2l-2.7,0.7l-0.5-1.3l0.7-3.4l-1.4-2h1.4l2,0.7l2,1.3h2.7l1.8,0.6l-1.1,2.1h-1.6L15.5,67.2z"/>
<path class="Cascais" d="M12.3,66.5l0.5,1.3l-2.7-1.3l-2-1.3l-2,0.7H2.7L0,64.5l1.3-2.7l3.4-2l1.9-0.7l2.2,0.6l2.7,1.4l1.4,2L12.3,66.5z"/>
<path class="Loures" d="M33,58.9l-2.9-1.4l-3.5-0.4l-1.4-1.3l-2-1.3l-3.5-1.2l0.1-2.2l0.7-2l-0.7-2v-2.7h2.7l2-0.7l1.4-3.4l3.4,2l2.1,1l1.9,1
	l-0.7,2l-2,1.3l-1.4,2l1.4,2l1.4-2l1.3,2l-0.7,2L33,55V58.9z"/>
<path class="Sintra" d="M17.7,59.1l0.7,2l-1.4,2l-2-1.3l-2-0.7h-1.4l-2.7-1.4l-2.2-0.6l-1.9,0.7l-3.4,0.7l-1.3-2V55l1.3-2L2,51l1.3-2.7L4,44.9
	l0.8-2.2l2.6,0.9l0.7,2l2,1.4l2,0.7l2-0.7l2-0.7l1.4,2l2.7,0.7l-0.7,2l-0.1,2.2l0.1,2.5L17.7,59.1z"/>
<path class="Vila Franca de Xira" d="M33.3,51.7l-1.3-2l-1.4,2l-1.4-2l1.4-2l2-1.3l0.7-2l-1.9-1l0.6-1.6l-1.4-2l2-0.7l2,0.7l2-1.3v-4.7l2,1.3l2-1.3l2,0.7l2-1.3
	l1.3-0.7l0.7,2l2-0.7v-2l2,0.7l0.7,2l-2,4l0.7,2l-2,1.3l-4.1,8.1l-0.7,2l-2.9,2l-2.2-4l-1.3,2L35,53l-2,2l-0.3-1.3L33.3,51.7z"/>
<path class="Arruda dos Vinhos" d="M36.7,33.6v4.7l-2,1.3l-2-0.7l-2,0.7l1.4,2l-0.6,1.6l-2.1-1l-3.4-2l-2-0.7l2-1.3l2.7-2.7l2,0.7v-2.7l1.4-0.7h2.7L36.7,33.6z
	"/>
<path class="Sobral de Monte Agraço" d="M25.9,38.3l-2,1.3l-2,0.7l-2-1.3l2.7-2.7l-0.7-2l2-0.7l2.7-2h3.4l2,1.4l-1.4,0.7v2.7l-2-0.7L25.9,38.3z"/>
<path class="Mafra" d="M19.8,44.3V47l0.7,2l-2.7-0.7l-1.4-2l-2,0.7l-2,0.7l-2-0.7l-2-1.4l-0.7-2l-2.6-0.9l1.2-3.2l-0.7-2l0.7-2l-0.7-2l0.7-2.7h1.3
	l-1.3-2l3.5,0.8l0.7,2l1.4,0.7l1.4,2l1.4-2l2,0.7l2,1.3l2-0.7l1.4,0.7l0.7,2l-2.7,2.7l2,1.3l2-0.7l2,0.7l-0.7,2l-0.7,1.3l-2,0.7
	H19.8z"/>
<path class="Alenquer" d="M40.8,33.6l-2,1.3l-2-1.3l-2-0.7H32l-2-1.4l-1.4-2l-1.4-4l-2-2l2-1.4v-2.7l-0.7-2l0.7-2l4.1,1.3H34l2.7-0.7l2-1.3l2.7,3.4
	l2.7,1.3l1.3,4l-2,0.7l0.7,2l-1.4,3.4l0.7,2l1.4,1.4l-2,1.3L40.8,33.6z"/>
<path class="Torres Vedras" d="M25.2,23.5l2,2l1.4,4l1.4,2h-3.4l-2.7,2l-2,0.7l-1.4-0.7l-2,0.7l-2-1.3l-2-0.7l-1.4,2l-1.4-2l-1.4-0.7l-0.7-2l-3.5-0.8v-3.4
	l2-4L9.4,18l1.3-2.7l1.5,0.8l2-0.7l2.7-0.7l2-0.7l1.3-2l2,0.7h2l0.7,2l2,0.7l-0.7,2l0.7,2v2.7L25.2,23.5z"/>
<path class="Azambuja" d="M49,31.5v2l-2,0.7l-0.7-2l-1.3,0.7l-1.4-1.4l-0.7-2l1.4-3.4l-0.7-2l2-0.7l-1.3-4l-2.7-1.3l-2.7-3.4l1.4-6l2-0.7l4.1,2
	l3.4-1.3l1.4,2l2,1.3l1.4,2L53,15.4l-2,0.7l-2-0.7l-2,1.3l2.7,4l2,1.3l2,0.7l2,2l1.4,4l-2,1.3l-1.4,2H51L49,31.5z"/>
<path class="Cadaval" d="M34,16.8h-2.7l-4.1-1.3l-2-0.7l-0.7-2l2.7-2l1.4-1.3l1.4-4L32,4l1.3-2H36l0.7,2h3.4l0.7,2l1.4,2l-2,0.7l-1.4,6l-2,1.3
	L34,16.8z"/>
<path class="Lourinhã" d="M17,14.8l-2.7,0.7l-2,0.7l-1.5-0.8l2-5.4l-0.7-2l0.7-2V4.8L15,4.7l1.4-2L17.7,0l2.7,2.3l2,1.1l0.7,2l-0.7,2v2.7l2,2.7h-2
	l-2-0.7l-1.3,2L17,14.8z"/>
</svg>
