<?xml version="1.0" encoding="utf-8"?>
<!-- Generator: Adobe Illustrator 24.3.0, SVG Export Plug-In . SVG Version: 6.00 Build 0)  -->
<svg version="1.1" id="Camada_1" xmlns="http://www.w3.org/2000/svg" xmlns:xlink="http://www.w3.org/1999/xlink" x="0px" y="0px"
	 viewBox="0 0 116.2 95.5" style="enable-background:new 0 0 116.2 95.5;" xml:space="preserve">
<path class="Elvas" d="M107.4,83.4l-1.5,4.1l-1.2,0.6H102l-2.7,4l-2,0.7l-2,2.7l-1-0.7l-0.7-1.3l0.7-4l0.7-2l-2-0.7l-2-0.7l-1.4,2h-2.7l-0.7,2
	l-2,1.3l-2-1.3l-2,0.7l-0.7-2l-1.4-2l-0.7-2l2.7-2l2-4.7l-0.7-2l2.7-6l0.7-2l2-2l2-1.3l2-0.7l4.1,2l4.1,2l2.5,1.4l1.6,1.9l1.4,2
	l0.7,2l1.3,2l3.1,1.6l-0.2,1v2.7L107.4,83.4z"/>
<path class="Sousel" d="M48.8,70l2,0.7l2-0.7l4.1-1.3l1.4,2l2,0.7l1.4-2l4.1,2l1.4,2l-2,1.3l-2,0.7l-2,0.7l-1.4,2l-0.7,2l-2-1.3l-2.7,0.7l-2-0.7
	l-2,0.7l-1.4,2l-2.7,0.7l-2-0.7h-2.7l-2-0.7L38,78.1l-1.4-2l-0.7-1.3l2.7-2.7l4.1-2l2,1.3L48.8,70z"/>
<path class="Campo Maior" d="M114.8,63.9l1.3,2l-2.7,4.7l-2.7,4l-0.7,2l-0.5,2.3l-3.1-1.6l-1.3-2l-0.7-2l-1.4-2l-1.6-1.9l1.6-4.1l-2-1.3l-0.7-2l-0.4-6.8
	l1.3,1.1l2,1.6l5.4-2l4,2l2,3.4V63.9z"/>
<path class="Arronches" d="M100,55.2l0.4,6.8l0.7,2l2,1.3l-1.6,4.1L99.1,68L95,66L91,64l-2,0.7l-2,1.3l-0.7-2.7h-2.7l-2-4l1.4-2l-2-1.3l-1.3-1.3l2.7-2
	l0.7-2l2-0.7h2.7l2-0.7l3.7-1.5l1.3,1.3H96l3.8,2.8l0.7,2L100,55.2z"/>
<path class="Monforte" d="M81.4,76.1l0.7,2l-2,4.7l-2.7,2l-0.7-2l0.7-2l-2-2l-2-0.7v-1.3l0.7-1.3l-0.7-2l-2-1.3l-2-0.7l-2-1.3l0.7-2l1.4-2l-0.7-2
	c-1-3.1-2.4-5.8-3.4-8.7l2-2l2.7-2h1.4l4.1,1.3l4.1,2l1.3,1.3l2,1.3l-1.4,2l2,4h2.7l0.7,2.7l-2,2l-0.7,2L81.4,76.1z"/>
<path class="Fronteira" d="M68.5,64l0.7,2l-1.4,2l-0.7,2l-1.4,1.3l-4.1-2l-1.4,2l-2-0.7l-1.4-2L52.9,70v-2.7l0.7-2l-2-1.3l-3.4-4.7l-1.4-2.7h2.7l2,0.7
	l5.4-0.7l2-0.7l2-0.7l2-1.4l2-0.7h2l-2,2C66.1,58.2,67.5,60.9,68.5,64z"/>
<path class="Avis" d="M38.6,72l-2.7,2.7l-2-0.7l-2,1.3l-2.7,1.3l-2-0.7l0.7-2l-3.4-3.4l-4.8-1.3l-2-0.7l0.7-2l2.7-3.4l0.7-2l1.4-2l2-0.7h6.8
	l0.7-2l0.7-4.7l4.8-2l0.7-2l2-0.7l2,4l0.7,2.7l2.7,0.7l0.7,2l1.4,2.7l3.4,4.7l2,1.3l-0.7,2V70l-2,0.7l-2-0.7l-4.1,1.3l-2-1.3
	L38.6,72z"/>
<path class="Portalegre" d="M91.3,41.7l0.7,2v2.7l1.3,1.4l-3.7,1.5l-2,0.7h-2.7l-2,0.7l-0.7,2l-2.7,2l-4.1-2l-4.1-1.3l-0.7-2.7l-2-1.3l-0.7-2l1.4-2.7
	l0.7-4l-0.7-2l-1.4-2l-3.4-2.7l2.7-2l2,0.7l4.1-2l2,0.7l1.4,2v2.7l2,1.4l1.4,2l2-0.7l0.7-2l4.4-0.5l1.4,1l1.3,2l2.7,2L91.3,41.7z"/>
<path class="Alter do Chão" d="M51.5,57.3l-2-0.7h-2.7l-0.7-2l-2.7-0.7l-0.7-2.7l-2-4l-2-1.3l1.4-2l-0.7-2l2-1.3l1.3-2l0.7-2.7l2,0.7
	c2.7,0.9,3.8,1.8,6.1,3.4l2.7,4l2,0.7c2,1.3,4.1,2.7,6.1,4l5.4,1.3l2,1.3l-2.7,2h-2l-2,0.7l-2,1.4l-2,0.7l-2,0.7L51.5,57.3z"/>
<path class="Crato" d="M64.5,31.8l3.4,2.7l1.4,2l0.7,2l-0.7,4l-1.4,2.7l0.7,2l2,1.3l0.7,2.7h-1.4l-2-1.3l-5.4-1.3c-2-1.3-4.1-2.7-6.1-4l-2-0.7
	l-2.7-4c-2.3-1.5-3.4-2.5-6.1-3.4l-2-0.7H40l-2,0.7l0.7-2c2.7-0.9,5.4-1.8,8.1-2.7l4.1-2l1.4-1.3l0.7-2l4.1-2l1.4,4l4.1,2.7
	L64.5,31.8z"/>
<path class="Ponte de Sôr" d="M39.3,41.8l0.7,2l-1.4,2l2,1.3l-2,0.7l-0.7,2l-4.8,2l-0.7,4.7l-0.7,2h-6.8l-2,0.7l-1.4,2l-0.7,2l-2.7,3.4l-0.7,2l-4.1,0.7
	l-2.7,4h-2l-2-4.7V66l-2-1.3l-0.7-2l-2-1.3l-2-0.8l1.3-1.9l1.4-2l0.7-2l2-1.3l2-0.7l2-0.7l1.4-2l2-1.3l1.4-2l1.4-3.4l1.3-2l2,0.7
	h2.7l0.7-2l2-1.4l0.7-2l1.4-2l-0.7-2h2.7l1.3-2l1.4,0.7l0.7,2l2,0.7l4.1,2.7l2-0.7h3.4l-0.7,2.7l-1.3,2L39.3,41.8z"/>
<path class="Marvão" d="M87.2,33.9l-4.4,0.5l-0.7,2l-2,0.7l-1.4-2l-2-1.4v-2.7l-1.4-2l2-1.3V25l0.7-2l-0.7-2l1.5-6.1l0.9,1.9l2,1.3h2.7l2.7,2
	l-0.7,4.7L85,28.7l0.9,0.9v3.4L87.2,33.9z"/>
<path class="Castelo de Vide" d="M78.9,14.9l-1.5,6L78,23l-0.7,2v2.7l-2,1.3l-2-0.7l-4.1,2l-2-0.7l-2.7,2c-2.6-0.9-1.7-0.5-4.1-2l2-1.3c0-3.1,0.2-2-0.7-4.7
	l2-1.3l0.7-2l-1.4-4l1.4-2.7c3.1,0,2.1-0.2,4.7,0.7l1.4-1.3v-2.7L73.1,8l1.3,2.7l3.4,2L78.9,14.9z"/>
<path class="Nisa" d="M55.6,2.2l0.7,2l2,0.7l2-2c2.8-1.9,3.9-2,7.1-2.9l1.5,4.6l1.3,2L73.1,8l-2.5,2.2v2.7l-1.4,1.3c-2.7-0.9-1.6-0.7-4.7-0.7
	l-1.4,2.7l1.4,4l-0.7,2l-2,1.3c0.9,2.7,0.7,1.6,0.7,4.7l-2,1.3l-2-1.3l-0.7-2l-0.7-2l-4.1,2l-0.7,2l-1.4,1.3l-4.1,2l1.4-2.7v-2.7
	l-2-0.7l-2-1.4l-2-0.7l-1.3-2l-2-1.3l-0.7-2l1.4-2l1.4,0.7l1.3-2l2.7-1.3l1.4-2l2-1.4l0.7-2l2-0.7l0.7-2l2-2.7L55.6,2.2z"/>
<path class="Gavião" d="M42,23.7l2,0.7l2,1.4l2,0.7v2.7l-1.4,2.7c-2.7,0.9-5.4,1.8-8.1,2.7l-0.7,2l-4.1-2.7l-2-0.7l-0.7-2l2-3.4l-1.4-2l-2-1.4l-2-2
	L27.1,21l0.7-2.7l2-1.3c0.7-2,1.4-4,2-6l2,1.3l2,0.7l2,1.3l1.4,2l-1.4,2l0.7,2l2,1.3L42,23.7z"/>
</svg>
