<?xml version="1.0" encoding="utf-8"?>
<!-- Generator: Adobe Illustrator 24.3.0, SVG Export Plug-In . SVG Version: 6.00 Build 0)  -->
<svg version="1.1" id="Camada_1" xmlns="http://www.w3.org/2000/svg" xmlns:xlink="http://www.w3.org/1999/xlink" x="0px" y="0px"
	 viewBox="0 0 72.6 49.1" style="enable-background:new 0 0 72.6 49.1;" xml:space="preserve">
<path class="Vila Nova de Gaia" d="M17.5,47.7l-3.4,0.7l-2-0.7l-0.9-0.6l0.3-2.1l-1.3-4.7v-4l-0.6-1.8l2.1,0.5l4.6-0.1l1.4,1.4l1.4,2l1.4,2l1.4,2l2.7-0.7l2,2
	l1.4,2l-4.1,0.7l-1.6-0.7l-1.8,1.3L17.5,47.7z"/>
<path class="Gondomar" d="M31.1,47.1l0.7,2l-3.4-1.3l-0.7-2l-1.4-2l-2-2l-2.7,0.7l-1.4-2l-1.4-2l-1.4-2l-1.4-1.4l2.4-1.7l-1.4-1.9l-2.1-1.5l2.5-1
	l1.4-0.7l2.4,1.1l1.2,4.2l1.9,1.4l0.7,2l0.7,2l2,0.7l3.4,0.7l0.6,4.4L31.1,47.1z"/>
<path class="Porto" d="M16.2,34.9l-4.6,0.1l-2.1-0.5l-0.8-2.2l-1.2-2.4l2.4,0.3l2.9,0l2.3-0.3l2.1,1.5l1.4,1.9L16.2,34.9z"/>
<path class="Baião" d="M63.8,26.2l1.3,2l2-0.7l1.4-2l2.7-3.3l1.4,1.7l-1.4,0.9l-0.7,2l0.7,2l-0.7,2l-1.4,4l-1.4,2l-2-0.7l-2,1.3L59.7,39h-4.1
	l-1.4-2l-1.4-2l2-0.7l2-2l0.7-2l2-2L63.8,26.2z"/>
<path class="Marco de Canaveses" d="M45.4,26.2l2.7-2l0.7,1.3l2,0.7l2-0.7h3.4l1.4,2l2,0.7l-2,2l-0.7,2l-2,2l-2,0.7l1.4,2l-0.7,2l-2,1.3l-2-0.7h-2.7l-2,0.7
	l-2,1.3l-2,0.7l-2-1.3l1.3-2l2-1.3l2-2l0.7-2l2-1.3L46.3,30l-2.9-0.4v-2L45.4,26.2z"/>
<path class="Penafiel" d="M43.4,27.6v2l2.9,0.4l0.5,2.3l-2,1.3l-0.7,2l-2,2L40,39l-1.3,2l-1.4,2l-2,0.7l-3.4,1.1l-0.6-4.4v-2l-0.9-2.1l0.4-3.5
	l1.2-0.7l1.6-2.6l0.8-1.3l2.2-0.6l1.5-1.9l2.7-1.3l2.4-0.9l1.7-1.8l2.9,0.7l0.5,2l-2.7,2L43.4,27.6z"/>
<path class="Paredes" d="M36.6,23.5l1.4,2l-1.5,1.9l-2.2,0.6l-0.8,1.3l-1.6,2.6l-1.2,0.7l-0.4,3.5l0.9,2.1v2l-3.4-0.7l-2-0.7L25,37l-0.7-2l1.6-3.2
	L25,28.9l0.7-2l1.3-4l2-0.7l2,1.3l2-1.3L36.6,23.5z"/>
<path class="Valongo" d="M16.2,24.2l2,0.7l0.7-2.7l1.3-0.7l0.7,2l2,0.7l2.7-2.7l1.3,1.3l-2,6l0.9,2.8l-1.6,3.2l-1.9-1.4l-1.2-4.2l-2.4-1.1l-1.4,0.7
	l-0.7-2.7L16.2,24.2z"/>
<path class="Maia" d="M18.2,24.9l-2-0.7l0.7,2l0.7,2.7l-2.5,1l-1.2-1.2l-0.2-2.2l-2-1.3L8,24.9l-1.4-2.7h2l0.7-2l3.4-1.3l0.7,1.3l2,1.3l1.8-0.6
	l1.6,1.3L18.2,24.9z"/>
<path class="Matosinhos" d="M8,24.9l3.5,0.3l2,1.3l0.2,2.2l1.2,1.2l-2.3,0.3l-2.9,0l-2.4-0.3l-2-4l-0.7-5.1l1.8,1.4L8,24.9z"/>
<path class="Amarante" d="M55.6,13.5l3.4,1.3l2-0.7l2-1.3l1.4-2l1.3,2l-0.7,2l2,0.7l2,1.3l0.7,3.4l1.4,2l-2.7,3.3l-1.4,2l-2,0.7l-1.3-2l-4.1,2l-2-0.7
	l-1.4-2h-3.4l-2,0.7l-2-0.7l-0.7-1.3l-0.5-2l-2.9-0.7l0.7-2l1.4-2l2-1.3h2.7l1.3-2.7H55.6z"/>
<path class="Felgueiras" d="M51.5,11.5l1.3,2l-1.3,2.7h-2.7l-2,1.3l-2-0.7L42,16.2l-1.4-2l-1.4-2l0.7-2l0.7-2h2.7l0.7-2h2.7l2,0.7l0.7,2l2.7,0.7
	L51.5,11.5z"/>
<path class="Lousada" d="M40.6,14.1l1.4,2l2.7,0.7l2,0.7l-1.4,2l-0.7,2l-1.7,1.8l-2.4,0.9l-2.7,1.3l-1.4-2l-3.4-1.3l2-3.4l0.7-2l-0.7-2l2-2l2-0.7
	L40.6,14.1z"/>
<path class="Paços de Ferreira" d="M31.1,23.5l-2-1.3l-2,0.7l-1.3-1.3l1.3-3.4l2-1.3l0.7-2l2-0.7l3.4,0.7l0.7,2l-0.7,2l-2,3.4L31.1,23.5z"/>
<path class="Santo Tirso" d="M29.1,8.8h2l-1.4,2.7l5.4-0.7l2,2l-2,2l-3.4-0.7l-2,0.7l-0.7,2l-2,1.3l-1.3,3.4L23,24.2l-2-0.7l-0.7-2v-2.7l0.7-2v-2.7
	l-0.7-2l2-1.3l2-0.7L29.1,8.8z"/>
<path class="Trofa" d="M10.8,14.8l1.6-0.8l1.8-1.2h2.7h2l1.4-0.7l0.7,2v2.7l-0.7,2l0,2.7l-1.3,0.7l-1.6-1.3l-1.8,0.6l-2-1.3l-0.7-1.3l-1.4-2
	L10.8,14.8z"/>
<path class="Vila do Conde" d="M14.1,12.8L12.4,14l-1.6,0.8l0.7,2l1.4,2l-3.4,1.3l-0.7,2h-2l-1.7-1.2l-1.6-6.2v-2.7l-0.7-2l1.2-1.3l0.7-2l2.7-0.7l4.1,2.7
	l0.7,2L14.1,12.8z"/>
<path class="Póvoa de Varzim" d="M3.9,8.8l-1.2,1.3l-1.4-2L0,4l0.7-4l1.2,0l2,1.3l4.8,1.3l0.7,2l3.4,1.3l0.7,2l-2,0.7L7.4,6.1L4.6,6.8L3.9,8.8z"/>
</svg>
