<?xml version="1.0" encoding="utf-8"?>
<!-- Generator: Adobe Illustrator 24.3.0, SVG Export Plug-In . SVG Version: 6.00 Build 0)  -->
<svg version="1.1" id="Camada_1" xmlns="http://www.w3.org/2000/svg" xmlns:xlink="http://www.w3.org/1999/xlink" x="0px" y="0px"
	 viewBox="0 0 97.1 116.8" style="enable-background:new 0 0 97.1 116.8;" xml:space="preserve">
<path class="Coruche" d="M58.4,102.1l-2,0.7l-5.4,1.3l-0.7,2l-4.8,2.7h-4.1l-1.4,1.3l-2.4,2.3l-4.4-0.3l-0.7-2v-2.7l-2-0.7l-0.7,1.3l-2-0.7v-2.7
	l-0.7-2l1.4-4l-0.7-2l-4.1-1.3l-1.4-2l1.4-2.7l2,0.7l2-0.4l4.1-2.9l3.4-4l-1.4-4l1.4-2l4.1-1.3l2,1.3l2-0.7h3.4l2,0.7l0.7,2l2.7-1.3
	l2.1-1.5l2,0.8l2,1.3l0.7,2l2,1.3v2.7l2,4.7l0.7,2l-1.4,4l-2,1.3l2,1.3l2,0.7l1.4,2l2-0.7l2,1.3l-2,1.3l0.7,2l1.4,2l2-0.7h2l-1.4,2
	l-1.4,2l-4.1-1.4l-0.7-2l-2-1.3l-2,0.7l-1.4-0.7l-0.7-2L58.4,102.1z"/>
<path class="Benavente" d="M28.5,98.7l-1.4,4l0.7,2v2.7l-2.7-2l-2,2l-0.7,2l-1.4,2v2.7l-1.4,2H17l-2,0.7v-2l-2-1.3l-2.7,1.3l-2,0.7l-2-0.7l-0.7-2
	l0.3-3l-1-2l-3.6-1.1l2.9-2l0.7-2l4.1-8.1l2-1.3l-0.7-2l2-4l-0.7-2h2.7l1.4-2L17,88l2,1.3l4.8,1.4l-1.4,2.7l1.4,2l4.1,1.3L28.5,98.7
	z"/>
<path class="Salva Terra de Magos" d="M27.8,90.9l-2,0.4l-2-0.7L19,89.3L17,88l-1.4-4.7l2-1.3l2-1.3l2.7-4l2-2l2,1.3h4.1l2-0.7l0.7,2l2,0.7l-1.4,2l1.4,4l-3.4,4
	L27.8,90.9z"/>
<path class="Almeirim" d="M45.5,69.8l0.7,2l-0.7,2l1.4,3.4h-3.4l-2,0.7l-2-1.3l-4.1,1.3l-2-0.7l-0.7-2l-2,0.7h-4.1l-2-1.3l-0.7-2l1.4-2l0.7-2l0.7-2
	v-2.7l2-1.3h2l0.7,2l2,1.4l2.7,3.3l2-0.7l1.4-2h2.7L45.5,69.8z"/>
<path class="Cartaxo" d="M25.1,70.5l-1.4,2l0.7,2l-2,2l-2.7,4l-2,1.3l-1.4-4l-2-2l-2-0.7l-2-1.3l-2.7-4l2-1.3l2,0.7l2-0.7l1.4-1.3l4.1-1.3l0.7,2
	l2,1.3l1.4-2L25.1,70.5z"/>
<path class="Chamusca" d="M57.7,71.2l-0.7,2l-1.4,2l-1.3,1.9l-2.1,1.5l-2.7,1.3l-0.7-2l-2-0.7l-1.4-3.4l0.7-2l-0.7-2l-3.4-3.4h-1.6l-0.4-4l-2-1.3
	l-0.7-3.4l-1.4-2l0.7-1.3l2-0.7l1.4-2.7l4.2-3l0.5-1l0.7-2v-2.7l1.4-1.7l3.2-0.5l1.5-1.2l2.7-0.7l0.7,2l1.4,3.4l0.2,2.4l1.2,2.3
	l0.5,2.1l1.5,2.6l0.7,2l1.4,2l0.7,2c2,1.3,4.1,2.7,6.1,4l-1.4,2l-2,1.3l-1.4,2l-2,0.7l-2,0.7L57.7,71.2z"/>
<path class="Alpiarça" d="M36,55.7l1.4,2l0.7,3.4l2,1.3l0.4,4h-1.1l-1.4,2l-2,0.7l-2.7-3.3l-2-1.4l-0.7-2l0.7-2.7l0.7-2.7L36,55.7z"/>
<path class="Golegã" d="M40.1,51l-1.4,2.7l-2,0.7L36,51.7l-0.7-2l0.7-2l0.7-2H38l2-0.7l1.4-2l2-2l3.4-0.4l-1.4,1.7V45l-0.7,2l-0.5,1L40.1,51z"/>
<path class="Santarém" d="M31.3,59.8l-0.7,2.7h-2l-2,1.3v2.7l-0.7,2l-0.7,2l-2-3.3l-1.4,2l-2-1.3l-0.7-2l-4.1,1.3l-1.4-2l-2-1.3l-1.4-2l2,0.7l2-0.7
	l0.7-2l2-0.7l-0.7-2l-2-1.3l2-2.7l0.7-2h-2.7l-0.7-2l-1.4-2l-4.1-1.4l1.4-2v-3.4l-0.7-2l2-0.7H17l2.7,0.7l2,1.3l1.4,2L19.7,43v2.7
	l4.1-1.3l2,0.7l2-0.7l2-0.7l1.4-1.3l3.4,2l2,1.3l-0.7,2l-0.7,2l0.7,2l0.7,2.7L36,55.7l-4.1,1.3L31.3,59.8z"/>
<path class="Rio Maior" d="M14.3,55.7l2,1.3l0.7,2l-2,0.7l-0.7,2l-2,0.7l-2-0.7l-3.4,1.3l-4.1-2l-1.4-2l-0.7-2v-2.7L0,53.1v-7.4l2,0.7l2,0.7l1.4-3.4
	l1.3-2.7l2-2.7l0.7,2V43v0.7l-1.4,2l4.1,1.4l1.4,2l0.7,2H17l-0.7,2L14.3,55.7z"/>
<path class="Constância" d="M59.4,39.9l2.4,6.5l0.7,2l-0.7,3.4l-2,1.3l-1.5-2.6l-0.5-2.1L56.6,46l-0.2-2.4L55,40.3l-0.7-2l0.7-4l2,0.7l2,0.7l0.7,2
	L59.4,39.9z"/>
<path class="Vila Nova da Barquinha" d="M50.1,40.1l-3.2,0.5l-3.4,0.4l0.7-2.7l1.2-2.2l-0.6-2.5h2.7l1.4,2l1.4,2l1.9-1.4l2.8-2l-0.7,4l-2.7,0.7L50.1,40.1z"/>
<path class="Entroncamento" d="M45.4,36l-1.2,2.2l-0.7,2.7l-3.9-0.4l0.2-3.3l1.9-2.2L45.4,36z"/>
<path class="Sardoal" d="M73.4,30.9l-1.6,2.4l-3.8-0.4l-0.7-2l-0.7-2l0.7-2l1.3-5l2.1,1h2.7l1.4,1.3l1.4,2l-0.7,2v2L73.4,30.9z"/>
<path class="Abrantes" d="M80.2,49l0.7,2l-1.4,2l-0.7,2l-2,1.4l-0.7,2c-3.1,0-2.1,0.2-4.8-0.7c-1.9,2.8-1.4,2-2.7,5.4l-6.1-4l-0.7-2l-1.4-2l-0.7-2
	l2-1.3l0.7-3.4l-3.1-8.5l0.3-2.2l-0.7-2L55,34.2l-2-1.3l2-2l2-0.7l1.3-2l2-0.7l1.4-2l-0.7-2l0.7-2l0.7-2c4,1,2.6,0.4,6,2.4l-1.3,5
	l-0.7,2l0.7,2l0.7,2l3.8,0.4l1.6-2.4l2-0.7l2,1.3v5.4l2,1.3l2-0.7l0.7,1.3l2,2c2.3,1.9,1-0.2,3.4,3.4l-2,3.4L84.2,47l-1.3,2H80.2z"
	/>
<path class="Tomar" d="M57.1,30.2l-2,0.7l-2,2l2,1.3l-2.8,2l-1.9,1.4l-1.4-2l-1.4-2h-2.7l-0.7-1.3l-2-1.3l0.7-2l0.7-2l-1.4-2l-0.7-2l-1.4-4l0.7-2
	l0.7-2l1.9-1.2l2.2,0.6h1.4l4.1,1.3l2-1.3l2,0.7l-0.7,2.6l0.7,2.1l2-1.3l5.4,1.3l-0.7,2l-0.7,2l0.7,2l-1.4,2l-2,0.7L57.1,30.2z"/>
<path class="Torres Novas" d="M38,45.7h-1.4l-2-1.3l-3.4-2l-0.7-2.7l0.7-1.3l-1.4-2l-2-1.3l2.1-3.4l4-4l1.4-2.7l2-0.7l2.7-5.4l1.4,4l0.7,2l1.4,2l-0.7,2
	l-0.7,2l2,1.3l0.7,1.3l0.6,2.5l-3.7-1l-1.9,2.2l-0.2,3.3l3.9,0.4l-2,2l-1.4,2L38,45.7z"/>
<path class="Alcanena" d="M19.7,43l3.4-1.3l-1.4-2l-2-1.3l2-2l-0.7-2l4.1-2.7l-0.7-2l1.4-2l4.1,4l-2.1,3.4l2,1.3l1.4,2l-0.7,1.3l0.7,2.7l-1.4,1.3
	l-2,0.7l-2,0.7l-2-0.7l-4.1,1.3V43z"/>
<path class="Mação" d="M91.7,18.1l1.4,2l2,1.3l0.7,2l1.3,2l-0.7,6l-1.3,2l-1.4-0.7l-1.4-2l-2-1.3l-2-0.7l-2-1.3c-0.7,2-1.4,4-2,6l-2,1.3l-0.7,2.7
	l-2,0.7l-2-1.3v-5.4l-2-1.3v-2l0.7-2l-1.4-2l1.4-2l0.7-2l-0.7-2l1.4-2v-2.7l0.7-2v-2l2.7-0.7l2,1.3l2-0.7c1.7,2.5,1.4,1.4,1.4,4.7
	v2.7L91.7,18.1z"/>
<path class="Ferreira do Zêzere" d="M57.1,18.1l-2,1.3l-0.7-2.1l0.7-2.6l-2-0.7l-2,1.3l-4.1-1.3V9.5l2-2.1h2.7l2-1.3l0.7-3.4h4.1l2,4l2-1.3l2.1,3.9l-1.4,2.1
	l0.7,2l-1.4,6L57.1,18.1z"/>
<path class="Ourém" d="M29.9,31.5l-4.1-4v-4l-1.4-2l1.4-2l2-0.7l2-4l-4.1-2.7l0.7-2l-0.7-2l0.7-2l4.1-1.3l2,0.7L36.7,4L38,2l4.1-2l1.4,2l0.7,4.7
	l0.7,2l2,0.8v2.6v2h-1.4l-2.2-0.6l-1.9,1.2l-0.7,2l-0.7,2l-2.7,5.4l-2,0.7L34,27.5L29.9,31.5z"/>
</svg>
