<?xml version="1.0" encoding="utf-8"?>
<!-- Generator: Adobe Illustrator 24.3.0, SVG Export Plug-In . SVG Version: 6.00 Build 0)  -->
<svg version="1.1" id="Camada_1" xmlns="http://www.w3.org/2000/svg" xmlns:xlink="http://www.w3.org/1999/xlink" x="0px" y="0px"
	 viewBox="0 0 93 114.2" style="enable-background:new 0 0 93 114.2;" xml:space="preserve">
<path class="Sines" d="M43.4,106.1l-0.7,2l-2-0.7l-2,1.3l-1.2,0.2l0.7-4l0.7-2L38,97.6l-0.7-2l-2.7-1.4l-4-1.3l2-4.7l2.5-4.7l2.8,1.8
	c0.9,3.7,0.6,4,3.4,6.7l2,0.7c1.2,1.2,1.5,3.1,2,4.7C44.2,100.8,43.9,102.4,43.4,106.1z"/>
<path class="Santiago do Cacém" d="M53.5,80.6H57l4.1,2l1.4,1.3l4.7,2l1.4-2l0.7-2c2.5,1.7,3.2,3.1,6.1,4l2,0.7l2,2.7V92L78,94.7v2.7l-2,4v2.7l-2-1.3l-2-0.7
	h-6.8l-2.7,1.3H59l-2,1.3l-0.7,2l-1.4,2l-0.7,4.7l-2,0.7l-2-0.7l-2-1.3l-2,1.3l-0.8-2.1l-1.9-1.3l-0.7-2l0.7-2
	c0.5-3.7,0.9-5.3,2-8.7c-0.5-1.6-0.8-3.5-2-4.7l-2-0.7c-2.8-2.8-2.5-3-3.4-6.7l-2.8-1.8l0.9-2.7l2-6.1l1.2,1.2l6.1,2l-0.7-2l2-0.7
	l2,0.7l0.7,2L53.5,80.6z"/>
<path class="Alcácer do Sal" d="M44,57.1l-4.8-9.8L38.4,41c-0.4-0.5-0.8-0.9-1.2-1.4l2.7-0.7l2-3.4l-0.5-1l1.1-0.3l6.8-4h2.7l6.1,2h4.1l4.7,1.4l2-0.7l1.4-2
	l2,0.7l4.7,8.1l-0.7,2l2,0.7l0.7,2l-2.7,4l2.7,0.7l1.4,2l5.4,0.7l2,2l4.1,1.3l-0.7,1.3l1.4,4.7v2.7l-2,1.3l-6.8,3.4l-2-1.3l-5.4,1.3
	h-2.7l-2,0.7l-7.5-6.7l-2,0.7l-4.8-2h-2.7l-2-0.7l-1.4-2.7l-2-0.7H44z"/>
<path class="Grândola" d="M57,80.6h-3.4l-4.1-2.7l-0.7-2l-2-0.7l-2,0.7l0.7,2l-6.1-2L38,74.7l1.3-6.7v-8.8l-0.6-4.9l-0.1-1.8l-1.4-4.7l-0.7-2.7
	l-2-3.4l-5.4-5.4l3.7,1.2l4.2,2.1l1.2,1.4l0.8,6.2l4.8,9.8h5.4l2,0.7l1.4,2.7l2,0.7h2.7l4.8,2l2-0.7l7.5,6.7l2-0.7h2.7l5.4-1.3
	l2,1.3l-3.4,0.7l-1.4,2v2.7l-2-0.7l-2-1.3l-2,4.7l-2-0.7l-2,6.1l-0.7,2l-1.4,2l-4.7-2L61,82.6L57,80.6z"/>
<path class="Palmela" d="M47.4,20.1l3.4-2l0.7,2l-1.3,1.3l-1.4,2l-0.7,2l0.7,2l0.7,2.7l-6.8,4l-1.1,0.3l-1.6-3l1.4-4l-2.7,0.7l-2.7,1.3l-1.4-0.7
	l-2,0.7l-2-0.7l-1.4,2l-2-0.7l-4.1,2l-2-1.3l-2-2l-2-1.4l2-2.7l2-0.7l2-1.4l1.4-4l2-1.3l6.1-0.7l0.7-1.3l0.7-2l0.7-2l2-0.7h2.7
	l4.1,1.3l-1.4,2l-4.7,2l2,2l3.4-2.7l2,0.7L47.4,20.1z"/>
<path class="Setúbal" d="M40,31.6l1.6,3l0.5,1l-2,3.4l-2.7,0.7L33,37.5l-3.7-1.2l-2.7-0.7h-2.7l-2,1.3l-1.3,2l-2,1.3l-2,0.7l1.1-2.1l-2-1.3l-0.7-2
	l0.7-2l-0.7-3.4l0.7-2.7h1.4l2,1.4l2,2l2,1.3l4.1-2l2,0.7l1.4-2l2,0.7l2-0.7l1.4,0.7l2.7-1.3l2.7-0.7L40,31.6z"/>
<path class="Sesimbra" d="M13.8,41l-2-0.7l-1.9,1.3l-2.8,0l-2,1.3l-2.7,0.7l2-4.7l1.4-4v-3.4L5,28.2l2.4-0.7l2,0.7l1.4,2l2-1.3l2,1.3l0.7,3.4l-0.7,2
	l0.7,2l2,1.3L16.5,41H13.8z"/>
<path class="Alcochete" d="M22.5,12.1l-2.9,0.6l-2.4-1.4l2-1.3V7.4L19.9,6l2-2V3.3l-1.1-2l3.6,1.1l1,2l-0.3,3l0.7,2l2,0.7l2-0.7l2.7-1.3l2,1.3v2
	l-1.4,4l-0.7,1.3l-6.1,0.7v-3.4l-2-1.3L22.5,12.1z"/>
<path class="Montijo" d="M56.3,16.8l-2.7,2.7l-2,0.7l-0.7-2l-3.4,2l-2.7-4l-2-0.7l-3.4,2.7l-2-2l4.7-2l1.4-2l-4.1-1.3l1.4-2V6L42,4l0.7-2l2-2l2.7,2
	l2,0.7l0.7-1.3l2,0.7v2.7l0.7,2L57.3,7l2.4,0.4l2,1.3L61,11.4l-1.4,2l-1.4,2L56.3,16.8z M26.4,14.1v3.4l-2,1.3l-2,0.7l-0.7-2l-0.7-2
	l-2-0.7l-2,0.7l-1.1-0.7l1.4-3.4l2.4,1.4l2.9-0.6l1.9,0.6L26.4,14.1z"/>
<path class="Moita" d="M18.2,22.8l-0.7-1.3l-2-1.3v-2.7l1.4-2l2-0.7l2,0.7l0.7,2l0.7,2l2-0.7l-1.4,4l-2,1.4l-2,0.7L18.2,22.8z"/>
<path class="Barreiro" d="M16.9,27.5h-1.4l-0.7-2l-0.7-2.7l-0.7-2l-1-2.7l2-1.3l1.3-2l1.1,0.7l-1.4,2v2.7l2,1.3l0.7,1.3l0.7,2L16.9,27.5z"/>
<path class="Seixal" d="M9.9,17.3l2.6,0.9l1,2.7l0.7,2l0.7,2.7l0.7,2l-0.7,2.7l-2-1.3l-2,1.3l-1.4-2l-2-0.7l-0.7-1.8l-0.4-1.9l1-2.6l0.6-1.9
	L9.9,17.3z"/>
<path class="Almada" d="M7.2,21.3l-1,2.6l0.4,1.9l0.7,1.8L5,28.2l-2.6-6l-0.7-2l-1.4-2l-0.3-1l4-0.7l4.7-1.3l-0.4,1.7l1.5,0.5l-2.1,2.1L7.2,21.3z"
	/>
</svg>
