<?xml version="1.0" encoding="utf-8"?>
<!-- Generator: Adobe Illustrator 24.3.0, SVG Export Plug-In . SVG Version: 6.00 Build 0)  -->
<svg version="1.1" id="Camada_1" xmlns="http://www.w3.org/2000/svg" xmlns:xlink="http://www.w3.org/1999/xlink" x="0px" y="0px"
	 viewBox="0 0 62.6 59.2" style="enable-background:new 0 0 62.6 59.2;" xml:space="preserve">
<path class="1" d="M31.8,47.2l-1.4-4.7v-2c2.3-0.8,4.4-1.4,6.8-2l2,0.7l2-0.7l4.1-2.7l1.3-2l2-0.7h2.7l1.4-2l-1.4-2l1.1-1.5l4,4v4l-2.4,2.8
	l-2,0.7l-1.4,2l-2,0.7l-2,1.4l-2-0.7l-0.7,2l-2-0.7l-2,0.7l-2-0.7l-2,0.7L31.8,47.2z"/>
<path class="2" d="M25.7,55.3V58h-2.7l-1.4-0.7l-3.1-1l-1.7-3.7l0.7-2l-2-2l-1.4-4l-1.4-2l0.7-2l0.7-2.7l0.7-2l1.4-2l2,1.3l2-1.3h2.7h2.7
	l2-0.7l-1.4,4l0.7,2l1.4,2l2-0.7v2l1.4,4.7l-2,0.7H27l0.7,2L25.7,55.3z"/>
<path class="3" d="M37.2,38.5c-2.4,0.6-4.5,1.2-6.8,2l-2,0.7l-1.4-2l-0.7-2l1.4-4l0.7-2l1.4-2l-1.4-4L27,22.4l4.1-0.7h5.4l6.1-2l2.7,2l2-1.3
	l0.7-2l3.4-0.7l2,0.7l-1.4,4l-0.7,2.7l1.1,2.5l-1.1,1.5l1.4,2l-1.4,2h-2.7l-2,0.7l-1.3,2l-4.1,2.7l-2,0.7L37.2,38.5z"/>
<path class="4" d="M20.2,33.8l-2,1.3l-2-1.3l-0.7-2l0.7-2l1.4-2.7l1.4-2l3.4-1.3l1.4-2l3.4,0.7l1.4,2.7l1.4,4l-1.4,2l-0.7,2l-2,0.7h-2.7H20.2z
	"/>
<path class="5" d="M11.8,58.2l-3.1,0.5l-2,1.3H5.6l-2.2-8.8l-2.7-4.7L0,43.8l0-2.4l1.9-0.9l2-0.7l2,0.7l2-0.7l2-2l2.7,0.7l1.4-0.7l-0.7,2.7
	l-0.7,2l1.4,2l1.4,4l2,2l-0.7,2l1.7,3.7l-1.7,1h-2.7L11.8,58.2z"/>
<path class="6" d="M14.8,35.8l-0.7,2l-1.4,0.7L10,37.8l-2,2l-2,0.7l-2-0.7l-2,0.7L0,41.4l0-3l0.7-2L0,33.7l0.7-2l1.9-2.5l2.2-2.9L6,27.8
	l1.4,3.4l2,1.3l2,0.7L14.8,35.8z"/>
<path class="7" d="M16.1,29.8l-0.7,2l0.7,2l-1.4,2l-3.4-2.7l-2-0.7l-2-1.3L6,27.8l-1.2-1.5l4.7-2l0.7-3.4l2.7-2l2.8-1.4v1.1l-0.8,2.5l0.7,2v2
	l2,2L16.1,29.8z"/>
<path class="8" d="M17.5,27.1l-2-2v-2l-0.7-2l0.8-2.5v-1.1l1.2-0.6l1.3-4l4-2l4,0.7L25,15l1.4,2l-0.7,2l-2,2.7l-1.4,2l-3.4,1.3L17.5,27.1z"/>
<path class="9" d="M27,22.4l-3.4-0.7l2-2.7l0.7-2L25,15l0.7-2l0.6-1.5l1.4-2.7L31,8.1l5.4,0.7l4-1.3l2.7,0.7L42,11.6v2l2,1.4l0.7,2l0.7,4.7
	l-2.7-2l-6.1,2h-5.4L27,22.4z"/>
<path class="10" d="M51.5,17.7l-3.4,0.7l-0.7,2l-2,1.3L44.7,17L44,15l-2-1.4v-2l1.2-3.6l0.7-2l6.1-4l4-2l0.7,2l-0.7,2.7l1.3,4.7l2-1.3h2.7
	l2,0.7l0.7,2v2.7l-1.3,2l-2,0.7l-0.7,2l-2,1.3l-0.7,2l-2,1.3l-1.3,4.7l-1.1-2.5l0.7-2.7l1.4-4L51.5,17.7z"/>
</svg>
