<?xml version="1.0" encoding="utf-8"?>
<!-- Generator: Adobe Illustrator 24.3.0, SVG Export Plug-In . SVG Version: 6.00 Build 0)  -->
<svg version="1.1" id="Camada_1" xmlns="http://www.w3.org/2000/svg" xmlns:xlink="http://www.w3.org/1999/xlink" x="0px" y="0px"
	 viewBox="0 0 75.4 84.8" style="enable-background:new 0 0 75.4 84.8;" xml:space="preserve">
<path class="Santa Marta de Penaguião" d="M29.2,74l0.7,2l0.7,2l-1.4,2l-4.1-2.7l-2-1.3l-1.4-1.4l-1.3-1.6L19,71.4l2-0.7l2-0.7l2,0.7l2.7-0.7l2-0.7V72L29.2,74z"/>
<path class="Peso da Régua" d="M32.6,76.1l2,0.7l2,0.7l1.4,1.3l-0.7,2l-2,1.3l-2,0.7h-2.7l-2-0.7l-4.1,0.7l-1.4-0.7l1.4-2l-2-1.3L19,78.1l-0.7-2l0.7-2
	l1.4-0.9l1.3,1.6l1.4,1.4l2,1.3l4.1,2.7l1.4-2l-0.7-2H32.6z"/>
<path class="Mesão Frio" d="M20.7,83.7l-2.4,1.1L17,84.1l1.4-4l0.7-2l3.4,0.7l2,1.3l-1.4,2L20.7,83.7z"/>
<path class="Alijó" d="M59.1,60.6l2,2l-0.7,2c-0.7,2-1.4,4-2,6l-2,1.3l0.7,2l-2,1.3l-2,0.7l-2,0.7l-2,0.7h-2v-2l0.7-2l-0.7-2l-0.7-2l-0.7-2l-0.7-2
	l-0.7-2l-1.4-2.7l-0.7-2l-0.7-2l2-1.3l2,0.7h2.7l2.7,0.7l6.1,2L59.1,60.6z"/>
<path class="Sabrosa" d="M46.9,71.4l0.7,2l-0.7,2v2l-0.7,2l-2,1.4l-2,0.7h-2.7l-2-0.7l0.7-2l0.7-2l-0.7-2V72l0.7-2l0.7-2l1.4-2l1.2-3.7l-1.9-3
	l-2-3.3l3.4,0.7l0.7,2l0.7,2l1.4,2.7l0.7,2l0.7,2l0.7,2L46.9,71.4z"/>
<path class="Vila Real" d="M40.1,59.3l1.9,3L40.8,66l-1.4,2l-0.7,2l-0.7,2v2.7l0.7,2l-0.7,2l-1.4-1.3l-2-0.7l-2-0.7h-2.7l-0.7-2l0.7-2v-2.7l-2,0.7
	l-2.7,0.7l-2-0.7l-2,0.7l-2,0.7l-1.4-2L17,66l2-1.3l4.1-2.7l1.4-2v-3.4l1.3-0.7l2-1.4l2,0.7l1.4-2l2,1.3l2,0.7l2.7,0.7L40.1,59.3z"
	/>
<path class="Mondim de Basto" d="M24.5,56.6v3.4l-1.4,2L19,64.6L17,66l-2-1.3l-2-0.7l0.7-2l-1.3-2v-5.4l2-1.3l-0.7-2l1.4-2.7l0.7-2H17v2.7l1.4,2h2.7l2.7,2
	l4.1,1.3l-2,1.4L24.5,56.6z"/>
<path class="Murça" d="M60.5,54.6l1.4,2l-0.7,2l1.4,2l2,0.7l-2,1.3h-1.4l-2-2l-2-2l-6.1-2l-2.7-0.7h-2.7l-2-0.7l0.7-2l0.7-2h2.7l2-0.7l2-1.3l0.7-2
	l0.7-1.3l2-2l2-1.3l0.7,1.3l1.4,2l-1.4,2l2,1.3l2,0.7l-0.7,2.7L60.5,54.6z"/>
<path class="Vila Pouca de Aguiar" d="M47.6,51.2h-2.7l-0.7,2l-0.7,2l-2,1.3l-3.4-0.7l-2.7-0.7l-2-0.7l-2-1.3l0.7-2l-2-2l-2-1.3l-0.7-2l3.4-2.7l2-0.7l-2.7-4
	l2-1.3l2-0.7l-0.7-2l2-0.7l2-2.7l2-0.7l2.7,2.7l1.4,2l2-2l2-0.7l0.7,2l0.7,2v2.7l0.7,2l1.4,2l2,2.7l-0.7,1.3l-0.7,2l-2,1.3
	L47.6,51.2z"/>
<path class="Ribeira de Pena" d="M27.9,47.9l2,1.3l2,2l-0.7,2l-1.4,2l-2-0.7l-4.1-1.3l-2.7-2h-2.7l-1.4-2v-1.3v-1.3l0.7-1.4l2-0.7l0.7-2l3.4-5.4l2-1.4l2-1.3
	l0.7-2l0.7-2l2-0.7l1.4,1.3l-0.7,2l-0.7,2l0.7,2l-2,1.3l2.7,4l-2,0.7l-3.4,2.7L27.9,47.9z"/>
<path class="Valpaços" d="M71.3,27.7l-1.4,2v2.7l-0.7,2v2l0.7,2l-1.4,4l-2,1.3l-0.7,2v2.7l-2,0.7l-2,0.7l-2-0.7l-2-1.3l1.4-2l-1.4-2l-0.7-1.3l-2,1.3
	l-2,2l-2-2.7l-1.4-2l-0.7-2v-2.7l4.1-2.7l2.7-5.4l-0.7-2l0.7-2l2-1.3l2,0.7l1.4-2l2-1.4l2.7-4l2-1.3l2,0.7l2-0.7l2-1.3l1.4,4l-0.7,2
	l-1.4,2l-0.7,2L71.3,27.7z"/>
<path class="Chaves" d="M62.9,6.1l2.7-0.7h0.7l2.7-2h2l2.4,2.8l-0.7,2v2.7l1.4,2.7l-2,1.3l-2,0.7l-2-0.7l-2,1.3l-2.7,4l-2,1.4l-1.4,2l-2-0.7l-2,1.3
	l-0.7,2l0.7,2L53,33.8l-4.1,2.7l-0.7-2l-0.7-2l-2,0.7l-2,2l-1.4-2l-2.7-2.7l2-1.3v-5.4l2.7-4l-2-6l0.7-2l-2-0.7l0.3-2.8h3l4-1.3
	L48.8,4l2,0.7L53.5,4l2,5.4l2-0.7l1.4-1.4l1.3-2L62.9,6.1z"/>
<path class="Boticas" d="M34.7,21.7l2-1.4l0.7-2l2.7-4l2-0.7l2,6l-2.7,4v5.4l-2,1.3l-2,0.7l-2,2.7l-2,0.7l0.7,2l-2,0.7l-0.7-2l0.7-2l0.7-2l-1.4-1.3
	l-2,0.7l-0.7,2l-0.7,2l-2,1.3l-2,1.4l-0.7-2l-0.7-2l-4.8-1.3l-1.4-2l1.4-2V25l0.7-2l2,0.7l4.1-2l2.7,0.7l2-0.7H34.7z"/>
<path class="Montalegre" d="M17.7,25v2.7l-1.4,2l1.4,2l4.8,1.3l-2,2l-4.8,0.7c-2.6-0.8-4.3-1.4-6.8-2.7l0.7-2v-2.7l1.4-2l-2-0.7l-2-1.3l-2,0.7H2l-2,0.7
	l0.7-2l2-1.3L4.1,17l1.6-6.9l1.3-2l2,0.7l0.7-2L11.1,4l2-0.7h2.7l2.7,2l2.7-0.7l1.3-2l4-0.7L34,0l2,1.4l4,1.3h2.7l-1.7,5.4l-0.3,2.8
	l2,0.7l-0.7,2l-2,0.7l-2.7,4l-0.7,2l-2,1.4h-5.4l-2,0.7l-2.7-0.7l-4.1,2l-2-0.7L17.7,25z"/>
</svg>
