<?xml version="1.0" encoding="utf-8"?>
<!-- Generator: Adobe Illustrator 24.3.0, SVG Export Plug-In . SVG Version: 6.00 Build 0)  -->
<svg version="1.1" id="Camada_1" xmlns="http://www.w3.org/2000/svg" xmlns:xlink="http://www.w3.org/1999/xlink" x="0px" y="0px"
	 viewBox="0 0 84.2 96" style="enable-background:new 0 0 84.2 96;" xml:space="preserve">
<path class="Mangualde" d="M57.1,70.5l-2,0.7l-2,0.7l-0.7,2h-2.7l-2-1.4l-4.1-2l-2-1.3l-2-0.7l-2-0.7l1.4-2l2-0.7l2-0.7l4.7-2l2-1.3l2,1.3l2,0.7l2,0.7
	l2-0.7l4.1-2l2.9,0l-0.2,1.4c-0.7,2-1.4,4-2,6l-3.4,1.3L57.1,70.5z"/>
<path class="Nelas" d="M38.7,79.9L36,81.3l-0.7-2l-1.4-2l-0.7-4l2-1.3l0.7-2l1.4-2l2,0.7l2,0.7l2,1.3l4.1,2l2,1.4l-2,1.3l-2,1.3l-2-0.7l-0.7,2
	l-2,0.7L38.7,79.9z"/>
<path class="Carregal do Sal" d="M26.5,89.3L23.8,86l0.7-2v-2.7h2.7l0.7-2l2-1.3l1.3-2v-3.4l2,0.7l0.7,4l1.4,2l0.7,2l-0.7,2l-0.7,2l-4.1,2L26.5,89.3z"/>
<path class="Santa Comba Dão" d="M16.3,83.3l2-1.3l2.1-0.6l2,0.6l2-0.7v2.7l-0.7,2l2.7,3.4l-3.4,2l-4.4,3.4c-3.1-0.8-1.9-0.7-5.2-0.7l2.7-6.1l-0.7-2
	L16.3,83.3z"/>
<path class="Mortágua" d="M13.6,94c-2.6,0.9-1.7,0.4-4.1,2c-2.4-1.6-1.4-1.1-4.1-2v-1.4l-4.1-1.3l-1.4-2l1.4-4l2-1.3l-1.4-4l1.4-2l2-1.3l2.2,0.2
	l3.9-0.2l2,4l2,0.7l0.7,2L15.6,86l0.7,2L13.6,94z"/>
<path class="Penalva do Castelo" d="M55.7,63.8l-2-0.7l-2-0.7l-2-1.3l-2.7-1.3l2.7-3.4h2.7l4.1-2h2.7l2.7-2l0.7,2l2,2l0.7,1.3l-0.5,3.3l-2.9,0l-4.1,2L55.7,63.8
	z"/>
<path class="Tondela" d="M24.5,81.3l-2,0.7l-2-0.6l-2.1,0.6l-2,1.3l-0.7-2l-2-0.7l-2-4l-3.9,0.2l0.5-1.5l-2-1.3l-0.7-2l-0.7-2v-2.7l2-0.7l2.9,2.6
	l1.9,0.1l2,1.3l1.4-1.3l0.7-2.7l1.4-2l0.7-2h2.7l1.4,0.7l4.1,2.7l2.7,0.7l1.4,2l-0.7,2l-0.7,2h2.7v3.4l-1.3,2l-2,1.3l-0.7,2H24.5z"
	/>
<path class="Vouzela" d="M23.1,61.1l-1.4,2l-1.4-0.7h-2.7l-0.7,2l-1.4,2l-3.4-0.7l-1.4-2l-2.7,0.7l-2-0.7l1.4-2l2-4l0.7-1.3l2,0.7l2.7-0.7l2-0.7
	l1.3-3.4l2,0.7l2-0.7l2-0.7l2.9-1.3l0.5,2.7l-0.7,2.7l-0.7,2l-1.4,2L23.1,61.1z"/>
<path class="Oliveira de Frades" d="M12.2,65.8l3.4,0.7l-0.7,2.7l-1.4,1.3l-2-1.3l-1.9-0.1l-2.9-2.6l1.4-2l2.7-0.7L12.2,65.8z M9.5,57.8l-2,4l-1.4,2l-1.3-2
	l0.7-2l-0.7-2.7l-2-1.3l-0.7-2l0.7-2l2-0.7l2-1.3l1.4-3.4L8.8,45l2,0.7l-0.7,2l-0.7,2l2.7,1.3h2l2,0.7l2,0.7L17,55.7l-2,0.7
	l-2.7,0.7l-2-0.7L9.5,57.8z"/>
<path class="Sátão" d="M56.4,54.4l-4.1,2h-2.7l-1.4-1.3l-1.4-3.4l1.4-4l3.4-2l0.7-2l1.4-4l2-0.7l2-1.3l2,0.7l2.7,1.3l-0.7,2l-0.7,2l-1.4,2l0.7,2
	l2.7,1.3l0.7,2l-2,1.3l-2.7,2H56.4z"/>
<path class="Viseu" d="M37.4,67.8l-1.4,2l-0.7,2l-2,1.3l-2-0.7h-2.7l0.7-2l0.7-2l-1.4-2l-2.7-0.7l-4.1-2.7l1.4-2l2-1.3l1.4-2l0.7-2l0.7-2.7
	l-0.5-2.7l1.9-1.4l2,0.7l2-2l0.7-2h2.7l2,1.3l2.7-2l0.7-2l1.4-2l2,2l2,2.7l0.7,2l-1.4,4l1.4,3.4l1.4,1.3l-2.7,3.4l2.7,1.3l-2,1.3
	l-4.7,2l-2,0.7l-2,0.7L37.4,67.8z"/>
<path class="São Pedro do Sul" d="M22.4,52.4l-2,0.7l-2-0.7l-2-0.7l-2-0.7h-2l-2.7-1.3l0.7-2l0.7-2l-2-0.7v-2.7l0.7-3.4l2,0.7l2,0.7l2.7-0.7l2,0.7l2-0.7
	L19,36.9l-0.7-2l0.7-2l-0.7-1.3l2,0.7l2-0.7l0.7,2l2,0.7l0.7,2l2,2l0.7,2l2,0.7l0.7,2l2,0.7l0.7,2l-0.7,2l-2,2l-2-0.7l-1.9,1.4
	l-2.9,1.3L22.4,52.4z"/>
<path class="Penedone" d="M82,29.3l-2.1,3.5l-3.9-1.2l-1.4-2l-0.7-2l-1.4-2l-0.7-2l1.4-2l-0.7-2l0.7-2h2.7l2-0.7l3.4,0.7l0.7,2l1.3,2l-2,0.7h-2.7
	l0.7,2l2,1.4l0.7,0.9L82,29.3z"/>
<path class="Sernancelhe" d="M76.8,38.3l-2,3.4l-1.4,2l-1.4-2l-1.4-1.3l-2-1.3l-1.4-2l-3.4,0.7l-1.4,2l-2.7-1.3l-2-0.7v-2l1.4-2l2-0.7l2-0.7l2-0.7
	l-0.7-2l1.4-2l1.4-5.4l4.7,1.3l0.7,2l1.4,2l0.7,2l1.4,2l-0.7,2l-0.7,1.4l2,1.3V38.3z"/>
<path class="Moimenta da Beira" d="M57.7,37.6l-2,1.3l-2,0.7L53,36.9l-0.7-2l1.4-2.7l-0.7-2h-2.7h-1.4v-2.7l1.4-2l0.7-2l1.4-2H55h2.7l0.7-2l0.7-2l2,1.3l2,1.3
	l2,2h2l-1.4,5.4l-1.4,2l0.7,2l-2,0.7l-2,0.7l-2,0.7l-1.4,2V37.6z"/>
<path class="Vila Nova de Paiva" d="M48.2,47.7l-0.7-2l-2-2.7l-2-2l-0.7-1.4l-0.7-2l-2-2.7l2.7-4l2-0.7l2,0.7l2-0.7h1.4H53l0.7,2l-1.4,2.7l0.7,2l0.7,2.7l-1.4,4
	l-0.7,2L48.2,47.7z"/>
<path class="Tarouca" d="M51,23.5l-0.7,2l-1.4,2l-2-0.7l-2,0.7l-2,1.3l-1.4-2l-0.7-0.7l0.7-2l1.4-2l2-1.3l2-0.7l0.7-2l0.7-2l0.7-2l2,1.3l1.4,2l2,2
	l0.7,2h-2.7L51,23.5z"/>
<path class="Castro Daire" d="M42.8,39.6l0.7,1.4l-1.4,2l-0.7,2l-2.7,2l-2-1.3H34l-0.7-2l-2-0.7l-0.7-2l-2-0.7l-0.7-2l-2-2l-0.7-2l-2-0.7l-0.7-2l-2,0.7
	l-2-0.7l-0.7-0.7l1.3-2l1.4-2.7h4.8l2.7,2l2-1.3l2-0.7l0.7-1.3l-1.4-1.3l2.7-1.3l2-0.7l2,0.7l-0.7,2l2,0.7l1.4,1.3l0.7,0.7l1.4,2
	l2-1.3l2-0.7l2,0.7v2.7l-2,0.7l-2-0.7l-2,0.7l-2.7,4l2,2.7L42.8,39.6z"/>
<path class="São João da Pesqueira" d="M73.4,1.3l2-1.3l4.8,7.4l2,0.7l2,0.7l-0.7,2l-0.7,2.7l-0.7,2l-0.7,2l-3.4-0.7l-2,0.7h-2.7l-0.7,2l0.7,2l-1.4,2l-4.7-1.3
	l0.7-2l0.7-2.7l-0.7-2.7l-2.7-4l0.6-2.7l-1.4-2.7l0.7-2h2l2-0.7l2-0.7L73.4,1.3z"/>
<path class="Tabuaço" d="M68.6,17.5l-0.7,2.7l-0.7,2h-2l-2-2l-2-1.3l-2-1.3v-3.4l-0.7-2V9.4l-0.7-2h2.7l2-0.7l2-1.4l1.4,2.7l-0.6,2.7l2.7,4
	L68.6,17.5z"/>
<path class="Armamar" d="M52.3,17.5l-1.4-2l-2-1.3v-1.3v-4h2.7l2-0.7l2-1.3l2,0.7l0.7,2v2.7l0.7,2v3.4l-0.7,2l-0.7,2H55l-0.7-2L52.3,17.5z"/>
<path class="Lamego" d="M39.4,24.8l-2-0.7l0.7-2l-2-0.7l0.7-2.7l1.4-2l0.7-2l1.4-2L39,9.6l2.4-1.6l1.4,0.7l4.1-0.7l2,0.7v2.7v2.7l-0.7,2l-0.7,2
	l-0.7,2l-2,0.7l-2,1.3l-1.4,2l-0.7,2L39.4,24.8z"/>
<path class="Resende" d="M36,21.5l-2,0.7l-2.7,1.3l-2-0.7l0.7-2l-1.4-2.7l-2-2.7l-0.7-1.3l4.1-1.3l2-1.3l2,0.7l1.4-2l1.4,0.7L39,9.6l1.1,3.1l-1.4,2
	l-0.7,2l-1.4,2L36,21.5z"/>
<path class="Cinfães" d="M29.2,22.8l2,0.7l1.4,1.3l-0.7,1.3l-2,0.7l-2,1.3l-2.7-2h-2.7h-2l0.7-1.3l-0.7-2l-2.7,4l-2-0.7l-2-0.7l-2-0.7l-0.7-2
	l-1.4,0.7v-3.4l-0.7-2l-2-0.7l2-0.7l2-1.3l2-0.7h2.7l2,0.7l2-1.3l0.7-2l1.4,2h4.1l0.7,1.3l2,2.7l1.4,2.7L29.2,22.8z"/>
</svg>
